<?xml version="1.0" encoding="utf-8"?>
<!-- Generator: Adobe Illustrator 15.0.0, SVG Export Plug-In  -->
<!DOCTYPE svg PUBLIC "-//W3C//DTD SVG 1.1//EN" "http://www.w3.org/Graphics/SVG/1.1/DTD/svg11.dtd" [
	<!ENTITY ns_flows "http://ns.adobe.com/Flows/1.0/">
]>
<svg version="1.1"
	 xmlns="http://www.w3.org/2000/svg" xmlns:xlink="http://www.w3.org/1999/xlink" xmlns:a="http://ns.adobe.com/AdobeSVGViewerExtensions/3.0/"
	 x="0px" y="0px" width="180px" height="62px" viewBox="-0.392 0.333 180 62" enable-background="new -0.392 0.333 180 62"
	 xml:space="preserve">
<defs>
</defs>
<g>
	<path fill="#FFFFFF" d="M15.695,10.902h8.458c3.586,0,5.433,2.221,5.433,4.844c0,1.258-0.455,3.024-2.569,4.015
		c1.258,0.508,3.479,1.392,3.479,4.684c0,3.078-2.275,5.674-6.53,5.674h-8.27V10.902z M18.292,19.039h4.684
		c2.489,0,4.015-0.75,4.015-3.105c0-1.793-1.097-2.81-3.988-2.81h-4.71V19.039z M18.292,27.897h5.54
		c2.703,0,4.068-1.365,4.068-3.506c0-2.703-2.382-3.238-4.497-3.238h-5.112V27.897z"/>
	<path fill="#FFFFFF" d="M38.631,24.525l-2.007,5.594h-2.677l7.227-19.216h2.944l6.958,19.216h-2.837l-1.9-5.594H38.631z
		 M45.402,22.223l-2.837-8.457h-0.054l-3.078,8.457H45.402z"/>
	<path fill="#FFFFFF" d="M58.061,27.817h9.742v2.302H55.464V10.902h2.596V27.817z"/>
	<path fill="#FFFFFF" d="M75.349,30.119h-2.596V10.902h2.596V30.119z"/>
	<path fill="#FFFFFF" d="M84.395,30.119h-2.596V10.902h2.596v9.313l9.313-9.313h3.587l-8.002,7.761l8.216,11.455h-3.372
		l-6.718-9.635l-3.024,2.89V30.119z"/>
	<path fill="#FFFFFF" d="M113.513,18.208c-0.188-2.007-1.445-3.158-3.426-3.158c-2.222,0-3.56,1.9-3.56,5.62
		c0,2.703,0.589,5.246,3.8,5.246c2.034,0,2.998-1.418,3.239-3.265h6.075c-0.563,4.978-4.122,7.976-9.207,7.976
		c-6.37,0-10.224-3.908-10.224-10.17c0-6.236,4.229-10.117,9.608-10.117c5.888,0,9.18,2.917,9.688,7.868H113.513z"/>
	<path fill="#FFFFFF" d="M120.471,30.119v-19.27h6.316v19.27H120.471z"/>
	<path fill="#FFFFFF" d="M141.479,21.367l-0.24-4.389v-6.129h6.048v19.27h-5.914l-6.879-10.491l0.241,4.389v6.102h-6.049v-19.27
		h5.915L141.479,21.367z"/>
	<path fill="#FFFFFF" d="M147.419,30.119l6.905-19.27h6.424l6.905,19.27h-6.29l-0.749-2.543h-6.29l-0.723,2.543H147.419z
		 M157.482,16.656l-1.953,6.905h3.987L157.482,16.656z"/>
</g>
<path fill="#FFFFFF" d="M122.784,61.859l3.792-20.129H11.665C5.232,41.73,0,35.956,0,28.857V12.874C0,5.775,5.232,0,11.665,0
	h155.887c6.432,0,11.665,5.775,11.665,12.874v15.983c0,7.099-5.233,12.873-11.665,12.873H148.06L122.784,61.859z M11.665,2.228
	c-5.204,0-9.437,4.776-9.437,10.646v15.983c0,5.87,4.233,10.646,9.437,10.646h117.598l-3.181,16.884l21.2-16.884h20.27
	c5.204,0,9.438-4.775,9.438-10.646V12.874c0-5.87-4.233-10.646-9.438-10.646H11.665z"/>
</svg>
