<?xml version="1.0" encoding="utf-8"?>
<!-- Generator: Adobe Illustrator 15.0.0, SVG Export Plug-In  -->
<!DOCTYPE svg PUBLIC "-//W3C//DTD SVG 1.1//EN" "http://www.w3.org/Graphics/SVG/1.1/DTD/svg11.dtd" [
	<!ENTITY ns_flows "http://ns.adobe.com/Flows/1.0/">
]>
<svg version="1.1"
	 xmlns="http://www.w3.org/2000/svg" xmlns:xlink="http://www.w3.org/1999/xlink" xmlns:a="http://ns.adobe.com/AdobeSVGViewerExtensions/3.0/"
	 x="0px" y="0px" width="83px" height="32px" viewBox="0 0 83 32" enable-background="new 0 0 83 32" xml:space="preserve">
<defs>
</defs>
<g enable-background="new    ">
	<path fill="#FFFFFF" d="M6.2,5.632h4.364c1.85,0,2.803,1.146,2.803,2.5c0,0.649-0.235,1.561-1.326,2.071
		c0.649,0.262,1.795,0.718,1.795,2.417c0,1.588-1.174,2.928-3.369,2.928H6.2V5.632z M7.54,9.83h2.417
		c1.284,0,2.071-0.387,2.071-1.602c0-0.925-0.566-1.45-2.057-1.45H7.54V9.83z M7.54,14.401h2.858c1.395,0,2.099-0.705,2.099-1.809
		c0-1.395-1.229-1.671-2.32-1.671H7.54V14.401z"/>
	<path fill="#FFFFFF" d="M17.003,12.661l-1.036,2.886h-1.381l3.729-9.915h1.519l3.59,9.915H21.96l-0.98-2.886H17.003z
		 M20.497,11.473l-1.463-4.364h-0.028l-1.588,4.364H20.497z"/>
	<path fill="#FFFFFF" d="M25.997,14.359h5.026v1.188h-6.366V5.632h1.34V14.359z"/>
	<path fill="#FFFFFF" d="M33.885,15.547h-1.339V5.632h1.339V15.547z"/>
	<path fill="#FFFFFF" d="M37.519,15.547h-1.34V5.632h1.34v4.806l4.806-4.806h1.851l-4.129,4.005l4.24,5.91h-1.74l-3.466-4.971
		l-1.56,1.491V15.547z"/>
</g>
<g enable-background="new    ">
	<path fill="#FFFFFF" d="M51.717,8.877c-0.166-0.594-0.483-1.712-2.195-1.712c-0.994,0-2.458,0.663-2.458,3.466
		c0,1.781,0.704,3.383,2.458,3.383c1.146,0,1.947-0.649,2.195-1.864h2.071c-0.414,2.154-1.822,3.659-4.309,3.659
		c-2.638,0-4.529-1.781-4.529-5.206c0-3.466,2.003-5.233,4.558-5.233c2.969,0,4.17,2.043,4.28,3.507H51.717z"/>
	<path fill="#FFFFFF" d="M57.272,15.547h-2.071V5.632h2.071V15.547z"/>
	<path fill="#FFFFFF" d="M65.256,5.632h1.934v9.915h-2.071l-4.046-7.07h-0.028v7.07h-1.933V5.632h2.182l3.936,6.905h0.027V5.632z"/>
	<path fill="#FFFFFF" d="M70.59,15.547h-2.182l3.535-9.915h2.389l3.494,9.915h-2.251l-0.636-2.044H71.28L70.59,15.547z
		 M71.833,11.791h2.526l-1.229-3.922h-0.027L71.833,11.791z"/>
</g>
<path fill="#FFFFFF" d="M53.862,31.932l1.957-10.39H6.021c-3.32,0-6.021-2.98-6.021-6.646V6.645C0,2.981,2.701,0,6.021,0h70.951
	c3.318,0,6.021,2.981,6.021,6.645v8.251c0,3.666-2.702,6.646-6.021,6.646H66.909L53.862,31.932z M6.021,1.149
	c-2.687,0-4.872,2.466-4.872,5.496v8.251c0,3.031,2.185,5.496,4.872,5.496h51.184l-1.641,8.715l10.943-8.715h10.463
	c2.687,0,4.872-2.465,4.872-5.496V6.645c0-3.03-2.186-5.496-4.872-5.496H6.021z"/>
</svg>
