<?xml version="1.0" encoding="utf-8"?>
<!-- Generator: Adobe Illustrator 15.0.0, SVG Export Plug-In  -->
<!DOCTYPE svg PUBLIC "-//W3C//DTD SVG 1.1//EN" "http://www.w3.org/Graphics/SVG/1.1/DTD/svg11.dtd" [
	<!ENTITY ns_flows "http://ns.adobe.com/Flows/1.0/">
]>
<svg version="1.1"
	 xmlns="http://www.w3.org/2000/svg" xmlns:xlink="http://www.w3.org/1999/xlink" xmlns:a="http://ns.adobe.com/AdobeSVGViewerExtensions/3.0/"
	 x="0px" y="0px" width="200px" height="150px" viewBox="0 0 200 150" enable-background="new 0 0 200 150" xml:space="preserve">
<defs>
</defs>
<rect fill="#21205F" width="200" height="150"/>
<text transform="matrix(1 0 0 1 29.9189 80.3496)"><tspan x="0" y="0" fill="#FFFFFF" font-family="'Helvetica'" font-size="27.0137">BALIK</tspan><tspan x="76.583" y="0" fill="#FFFFFF" font-family="'Helvetica-Bold'" font-size="27.0137">CINA</tspan></text>
<path fill="#FFFFFF" d="M125.115,112.387l3.827-20.316H31.57c-6.493,0-11.774-5.829-11.774-12.995V62.942
	c0-7.165,5.282-12.994,11.774-12.994h138.733c6.491,0,11.774,5.83,11.774,12.994v16.133c0,7.166-5.283,12.995-11.774,12.995h-19.676
	L125.115,112.387z M31.57,52.196c-5.253,0-9.526,4.82-9.526,10.746v16.133c0,5.926,4.272,10.746,9.526,10.746h100.083l-3.21,17.042
	l21.398-17.042h20.461c5.253,0,9.526-4.82,9.526-10.746V62.942c0-5.925-4.273-10.746-9.526-10.746H31.57z"/>
</svg>
