<?xml version="1.0" encoding="utf-8"?>
<!-- Generator: Adobe Illustrator 15.0.0, SVG Export Plug-In  -->
<!DOCTYPE svg PUBLIC "-//W3C//DTD SVG 1.1//EN" "http://www.w3.org/Graphics/SVG/1.1/DTD/svg11.dtd" [
	<!ENTITY ns_flows "http://ns.adobe.com/Flows/1.0/">
]>
<svg version="1.1"
	 xmlns="http://www.w3.org/2000/svg" xmlns:xlink="http://www.w3.org/1999/xlink" xmlns:a="http://ns.adobe.com/AdobeSVGViewerExtensions/3.0/"
	 x="0px" y="0px" width="200px" height="150px" viewBox="-19.796 -49.948 200 150" enable-background="new -19.796 -49.948 200 150"
	 xml:space="preserve">
<defs>
</defs>
<g>
	<g enable-background="new    ">
		<path fill="#21205F" d="M12.122,11.01h8.535c3.619,0,5.482,2.242,5.482,4.889c0,1.269-0.459,3.052-2.593,4.051
			c1.27,0.513,3.511,1.404,3.511,4.727c0,3.105-2.296,5.726-6.59,5.726h-8.346V11.01z M14.741,19.22h4.727
			c2.512,0,4.051-0.756,4.051-3.133c0-1.81-1.107-2.835-4.024-2.835h-4.753V19.22z M14.741,28.16h5.591
			c2.728,0,4.105-1.378,4.105-3.538c0-2.729-2.404-3.269-4.538-3.269h-5.159V28.16z"/>
		<path fill="#21205F" d="M33.246,24.757l-2.025,5.645h-2.701l7.292-19.392h2.971l7.022,19.392h-2.863l-1.917-5.645H33.246z
			 M40.079,22.434l-2.863-8.534h-0.054l-3.106,8.534H40.079z"/>
		<path fill="#21205F" d="M50.831,28.079h9.831v2.322H48.211V11.01h2.62V28.079z"/>
		<path fill="#21205F" d="M66.256,30.401h-2.619V11.01h2.619V30.401z"/>
		<path fill="#21205F" d="M73.361,30.401h-2.62V11.01h2.62v9.398l9.398-9.398h3.619l-8.075,7.832l8.291,11.56h-3.403l-6.778-9.723
			l-3.052,2.917V30.401z"/>
	</g>
	<g enable-background="new    ">
		<path fill="#21205F" d="M101.128,17.356c-0.324-1.161-0.945-3.349-4.294-3.349c-1.944,0-4.808,1.296-4.808,6.779
			c0,3.484,1.378,6.617,4.808,6.617c2.241,0,3.808-1.27,4.294-3.646h4.052c-0.811,4.213-3.565,7.156-8.427,7.156
			c-5.158,0-8.858-3.483-8.858-10.182c0-6.779,3.916-10.236,8.913-10.236c5.807,0,8.156,3.997,8.372,6.86H101.128z"/>
		<path fill="#21205F" d="M111.989,30.401h-4.051V11.01h4.051V30.401z"/>
		<path fill="#21205F" d="M127.602,11.01h3.781v19.392h-4.052l-7.913-13.828h-0.054v13.828h-3.781V11.01h4.268l7.697,13.504h0.054
			V11.01z"/>
		<path fill="#21205F" d="M138.03,30.401h-4.268l6.914-19.392h4.673l6.833,19.392h-4.402l-1.242-3.997h-7.157L138.03,30.401z
			 M140.461,23.056h4.942L143,15.385h-0.055L140.461,23.056z"/>
	</g>
</g>
<path fill="#21205F" d="M105.319,62.438l3.826-20.316H11.774C5.281,42.122,0,36.294,0,29.128V12.994C0,5.829,5.282,0,11.774,0
	h138.733c6.491,0,11.774,5.83,11.774,12.994v16.133c0,7.166-5.283,12.995-11.774,12.995h-19.676L105.319,62.438z M11.774,2.248
	c-5.253,0-9.526,4.82-9.526,10.746v16.133c0,5.926,4.272,10.745,9.526,10.745h100.083l-3.209,17.043l21.397-17.043h20.461
	c5.253,0,9.526-4.819,9.526-10.745V12.994c0-5.925-4.273-10.746-9.526-10.746H11.774z"/>
</svg>
