<?xml version="1.0" encoding="utf-8"?>
<!-- Generator: Adobe Illustrator 15.0.0, SVG Export Plug-In  -->
<!DOCTYPE svg PUBLIC "-//W3C//DTD SVG 1.1//EN" "http://www.w3.org/Graphics/SVG/1.1/DTD/svg11.dtd" [
	<!ENTITY ns_flows "http://ns.adobe.com/Flows/1.0/">
]>
<svg version="1.1"
	 xmlns="http://www.w3.org/2000/svg" xmlns:xlink="http://www.w3.org/1999/xlink" xmlns:a="http://ns.adobe.com/AdobeSVGViewerExtensions/3.0/"
	 x="0px" y="0px" width="1250px" height="400px" viewBox="1 0 1250 400" enable-background="new 1 0 1250 400" xml:space="preserve"
	>
<defs>
</defs>
<rect fill="#140F43" width="1252" height="400"/>
<g opacity="0.1">
	<rect y="41" fill="none" width="1252" height="311"/>
	<path fill="#FFFFFF" d="M2.22,41h9.48c4.02,0,6.089,2.49,6.089,5.43c0,1.41-0.51,3.39-2.88,4.5c1.41,0.57,3.9,1.56,3.9,5.25
		c0,3.45-2.55,6.36-7.319,6.36H2.22V41z M5.13,50.12h5.25c2.79,0,4.5-0.84,4.5-3.48c0-2.01-1.23-3.15-4.47-3.15H5.13V50.12z
		 M5.13,60.05h6.209c3.03,0,4.56-1.53,4.56-3.93c0-3.03-2.67-3.63-5.04-3.63H5.13V60.05z"/>
	<path fill="#FFFFFF" d="M37.763,63.109c-8.04,0-10.5-6.689-10.5-11.339s2.46-11.339,10.5-11.339s10.5,6.689,10.5,11.339
		S45.802,63.109,37.763,63.109z M37.763,43.01c-4.68,0-7.5,3.69-7.5,8.76s2.82,8.76,7.5,8.76s7.5-3.69,7.5-8.76
		S42.442,43.01,37.763,43.01z"/>
	<path fill="#FFFFFF" d="M72.917,47.48c-0.81-3.78-3.96-4.47-6.03-4.47c-3.9,0-7.05,2.88-7.05,8.55c0,5.07,1.8,8.97,7.14,8.97
		c1.89,0,5.16-0.9,6.15-5.91h2.82c-1.2,8.129-7.8,8.489-9.419,8.489c-4.89,0-9.69-3.18-9.69-11.459
		c0-6.629,3.78-11.219,10.05-11.219c5.55,0,8.43,3.45,8.85,7.049H72.917z"/>
	<path fill="#FFFFFF" d="M94.93,63.109c-8.04,0-10.5-6.689-10.5-11.339s2.46-11.339,10.5-11.339s10.5,6.689,10.5,11.339
		S102.969,63.109,94.93,63.109z M94.93,43.01c-4.68,0-7.5,3.69-7.5,8.76s2.82,8.76,7.5,8.76s7.5-3.69,7.5-8.76
		S99.609,43.01,94.93,43.01z"/>
	<path fill="#FFFFFF" d="M118.233,62.54h-2.91V41h9.96c3.54,0,7.08,1.23,7.08,5.79c0,3.18-1.62,4.35-3,5.16
		c1.23,0.51,2.46,1.05,2.58,4.05l0.18,3.899c0.03,1.2,0.18,1.65,1.08,2.16v0.48h-3.57c-0.42-1.32-0.51-4.59-0.51-5.4
		c0-1.77-0.36-3.84-3.84-3.84h-7.05V62.54z M118.233,50.81h6.75c2.13,0,4.38-0.54,4.38-3.72c0-3.33-2.43-3.6-3.87-3.6h-7.26V50.81z"
		/>
	<path fill="#D1D3D4" d="M145.617,62.54h-2.91V41h2.91V51.44L156.057,41h4.02l-8.97,8.7l9.209,12.839h-3.78l-7.53-10.799l-3.39,3.24
		V62.54z"/>
	<path fill="#D1D3D4" d="M172.19,56.27l-2.25,6.27h-3L175.04,41h3.3l7.8,21.539h-3.18l-2.13-6.27H172.19z M179.78,53.69l-3.18-9.479
		h-0.06l-3.45,9.479H179.78z"/>
	<path fill="#D1D3D4" d="M209.174,41h2.82V62.54h-3.27l-10.95-17.399h-0.06V62.54h-2.82V41h3.45l10.77,17.399h0.06V41z"/>
	<path fill="#D1D3D4" d="M232.027,51.02h9.45v11.52h-1.89l-0.69-2.79c-1.47,2.04-4.169,3.36-7.109,3.36c-3.69,0-5.49-1.35-6.6-2.43
		c-3.3-3.12-3.39-6.81-3.39-9.09c0-5.25,3.18-11.159,10.2-11.159c4.02,0,8.49,2.28,9.12,7.109h-2.82c-0.93-3.75-4.08-4.53-6.45-4.53
		c-3.87,0-7.05,3.09-7.05,8.73c0,4.379,1.44,8.879,7.169,8.879c1.08,0,2.82-0.12,4.41-1.38c1.89-1.5,2.37-3.42,2.37-5.73h-6.72
		V51.02z"/>
	<path fill="#D1D3D4" d="M254.971,62.54h-2.91V41h2.91V51.44L265.41,41h4.02l-8.97,8.7l9.209,12.839h-3.78l-7.53-10.799l-3.39,3.24
		V62.54z"/>
	<path fill="#D1D3D4" d="M295.194,41V54.98c0,4.41-2.76,8.129-8.67,8.129c-5.79,0-8.279-3.72-8.279-7.74V41h2.91v13.56
		c0,4.68,2.85,5.97,5.46,5.97c2.67,0,5.669-1.23,5.669-5.91V41H295.194z"/>
	<path fill="#D1D3D4" d="M320.177,41h2.82V62.54h-3.27l-10.95-17.399h-0.06V62.54h-2.82V41h3.45l10.77,17.399h0.06V41z"/>
	<path fill="#D1D3D4" d="M343.03,51.02h9.45v11.52h-1.89l-0.69-2.79c-1.47,2.04-4.169,3.36-7.109,3.36c-3.69,0-5.49-1.35-6.6-2.43
		c-3.3-3.12-3.39-6.81-3.39-9.09c0-5.25,3.18-11.159,10.2-11.159c4.02,0,8.49,2.28,9.12,7.109h-2.82c-0.93-3.75-4.08-4.53-6.45-4.53
		c-3.87,0-7.05,3.09-7.05,8.73c0,4.379,1.44,8.879,7.169,8.879c1.08,0,2.82-0.12,4.41-1.38c1.89-1.5,2.37-3.42,2.37-5.73h-6.72
		V51.02z"/>
	<path fill="#FFFFFF" d="M371.554,62.54h-2.82V47.57h-4.92v-2.1c3.42-0.24,4.83-0.57,5.67-4.02h2.07V62.54z"/>
	<path fill="#FFFFFF" d="M403.558,62.54V49.82c0-0.63,0.06-3.36,0.06-5.37h-0.06l-6.06,18.089h-2.88l-6.06-18.059h-0.06
		c0,1.979,0.06,4.709,0.06,5.34V62.54h-2.82V41h4.17l6.149,18.209h0.06L402.238,41h4.14V62.54H403.558z"/>
	<path fill="#FFFFFF" d="M420.292,56.27l-2.25,6.27h-3l8.1-21.539h3.3l7.8,21.539h-3.18l-2.13-6.27H420.292z M427.881,53.69
		l-3.18-9.479h-0.06l-3.45,9.479H427.881z"/>
	<path fill="#FFFFFF" d="M445.905,59.959h10.919v2.58h-13.83V41h2.91V59.959z"/>
	<path fill="#FFFFFF" d="M469.149,56.27l-2.25,6.27h-3l8.1-21.539h3.3l7.8,21.539h-3.18l-2.13-6.27H469.149z M476.738,53.69
		l-3.18-9.479h-0.06l-3.45,9.479H476.738z"/>
	<path fill="#FFFFFF" d="M498.033,62.54h-2.91V53.87L486.993,41h3.39l6.18,10.35l6.18-10.35h3.42l-8.13,12.87V62.54z"/>
	<path fill="#FFFFFF" d="M527.936,47.3c-0.15-3.33-2.91-4.38-5.34-4.38c-1.83,0-4.92,0.51-4.92,3.78c0,1.83,1.29,2.43,2.55,2.73
		l6.15,1.41c2.79,0.66,4.89,2.34,4.89,5.76c0,5.1-4.74,6.51-8.43,6.51c-3.99,0-5.55-1.2-6.51-2.07c-1.83-1.65-2.19-3.45-2.19-5.459
		h2.73c0,3.899,3.18,5.04,5.94,5.04c2.1,0,5.64-0.54,5.64-3.63c0-2.25-1.05-2.97-4.59-3.81l-4.41-1.02
		c-1.41-0.33-4.59-1.32-4.59-5.07c0-3.36,2.19-6.66,7.41-6.66c7.53,0,8.28,4.5,8.4,6.87H527.936z"/>
	<path fill="#FFFFFF" d="M544.399,62.54h-2.91V41h2.91V62.54z"/>
	<path fill="#FFFFFF" d="M558.854,56.27l-2.25,6.27h-3l8.1-21.539h3.3l7.8,21.539h-3.18l-2.13-6.27H558.854z M566.443,53.69
		l-3.18-9.479h-0.06l-3.45,9.479H566.443z"/>
	<path fill="#939598" d="M584.467,59.959h10.919v2.58h-13.83V41h2.91V59.959z"/>
	<path fill="#939598" d="M607.681,62.54h-2.91V41h2.91V62.54z"/>
	<path fill="#939598" d="M631.734,47.3c-0.15-3.33-2.91-4.38-5.34-4.38c-1.83,0-4.92,0.51-4.92,3.78c0,1.83,1.29,2.43,2.55,2.73
		l6.15,1.41c2.79,0.66,4.89,2.34,4.89,5.76c0,5.1-4.739,6.51-8.43,6.51c-3.99,0-5.55-1.2-6.51-2.07c-1.83-1.65-2.19-3.45-2.19-5.459
		h2.73c0,3.899,3.18,5.04,5.94,5.04c2.1,0,5.64-0.54,5.64-3.63c0-2.25-1.051-2.97-4.59-3.81l-4.41-1.02
		c-1.41-0.33-4.59-1.32-4.59-5.07c0-3.36,2.19-6.66,7.41-6.66c7.53,0,8.28,4.5,8.4,6.87H631.734z"/>
	<path fill="#939598" d="M642.978,41h17.489v2.58h-7.289V62.54h-2.91V43.58h-7.29V41z"/>
	<path fill="#939598" d="M685.45,62.54h-15.899V41h15.689v2.58h-12.779v6.6h11.789v2.58h-11.789v7.2h12.989V62.54z"/>
	<path fill="#939598" d="M709.624,41h2.819V62.54h-3.27L698.225,45.14h-0.061V62.54h-2.82V41h3.451l10.77,17.399h0.06V41z"/>
	<path fill="#FFFFFF" d="M725.997,59.959h10.92v2.58h-13.829V41h2.909V59.959z"/>
	<path fill="#FFFFFF" d="M749.211,62.54h-2.91V41h2.91V62.54z"/>
	<path fill="#FFFFFF" d="M773.265,47.3c-0.15-3.33-2.91-4.38-5.34-4.38c-1.83,0-4.92,0.51-4.92,3.78c0,1.83,1.29,2.43,2.55,2.73
		l6.149,1.41c2.79,0.66,4.891,2.34,4.891,5.76c0,5.1-4.74,6.51-8.43,6.51c-3.99,0-5.55-1.2-6.51-2.07
		c-1.83-1.65-2.19-3.45-2.19-5.459h2.73c0,3.899,3.18,5.04,5.939,5.04c2.1,0,5.64-0.54,5.64-3.63c0-2.25-1.05-2.97-4.59-3.81
		l-4.41-1.02c-1.409-0.33-4.59-1.32-4.59-5.07c0-3.36,2.19-6.66,7.41-6.66c7.529,0,8.279,4.5,8.399,6.87H773.265z"/>
	<path fill="#FFFFFF" d="M784.509,41h17.489v2.58h-7.29V62.54h-2.909V43.58h-7.29V41z"/>
	<path fill="#FFFFFF" d="M826.981,62.54h-15.899V41h15.689v2.58h-12.779v6.6h11.789v2.58h-11.789v7.2h12.989V62.54z"/>
	<path fill="#FFFFFF" d="M851.155,41h2.819V62.54h-3.27L839.756,45.14h-0.061V62.54h-2.819V41h3.449l10.77,17.399h0.061V41z"/>
	<path fill="#939598" d="M867.528,59.959h10.92v2.58h-13.829V41h2.909V59.959z"/>
	<path fill="#939598" d="M890.742,62.54h-2.91V41h2.91V62.54z"/>
	<path fill="#939598" d="M914.796,47.3c-0.15-3.33-2.91-4.38-5.34-4.38c-1.83,0-4.92,0.51-4.92,3.78c0,1.83,1.29,2.43,2.55,2.73
		l6.149,1.41c2.79,0.66,4.891,2.34,4.891,5.76c0,5.1-4.74,6.51-8.43,6.51c-3.99,0-5.55-1.2-6.51-2.07
		c-1.83-1.65-2.19-3.45-2.19-5.459h2.73c0,3.899,3.18,5.04,5.939,5.04c2.1,0,5.64-0.54,5.64-3.63c0-2.25-1.05-2.97-4.59-3.81
		l-4.41-1.02c-1.409-0.33-4.59-1.32-4.59-5.07c0-3.36,2.19-6.66,7.41-6.66c7.529,0,8.279,4.5,8.399,6.87H914.796z"/>
	<path fill="#939598" d="M926.039,41h17.489v2.58h-7.29V62.54h-2.909V43.58h-7.29V41z"/>
	<path fill="#939598" d="M968.513,62.54h-15.899V41h15.689v2.58h-12.779v6.6h11.789v2.58h-11.789v7.2h12.989V62.54z"/>
	<path fill="#939598" d="M992.686,41h2.819V62.54h-3.27L981.286,45.14h-0.061V62.54h-2.819V41h3.449l10.77,17.399h0.061V41z"/>
	<path fill="#FFFFFF" d="M1019.138,47.3c-0.15-3.33-2.91-4.38-5.34-4.38c-1.83,0-4.92,0.51-4.92,3.78c0,1.83,1.29,2.43,2.55,2.73
		l6.149,1.41c2.79,0.66,4.891,2.34,4.891,5.76c0,5.1-4.74,6.51-8.43,6.51c-3.99,0-5.55-1.2-6.51-2.07
		c-1.83-1.65-2.19-3.45-2.19-5.459h2.73c0,3.899,3.18,5.04,5.939,5.04c2.1,0,5.64-0.54,5.64-3.63c0-2.25-1.05-2.97-4.59-3.81
		l-4.41-1.02c-1.409-0.33-4.59-1.32-4.59-5.07c0-3.36,2.19-6.66,7.41-6.66c7.529,0,8.279,4.5,8.399,6.87H1019.138z"/>
	<path fill="#FFFFFF" d="M1041.632,63.109c-8.04,0-10.5-6.689-10.5-11.339s2.46-11.339,10.5-11.339
		c8.039,0,10.499,6.689,10.499,11.339S1049.671,63.109,1041.632,63.109z M1041.632,43.01c-4.681,0-7.5,3.69-7.5,8.76
		s2.819,8.76,7.5,8.76c4.68,0,7.499-3.69,7.499-8.76S1046.312,43.01,1041.632,43.01z"/>
	<path fill="#FFFFFF" d="M1078.705,41V54.98c0,4.41-2.76,8.129-8.67,8.129c-5.79,0-8.279-3.72-8.279-7.74V41h2.91v13.56
		c0,4.68,2.85,5.97,5.459,5.97c2.67,0,5.67-1.23,5.67-5.91V41H1078.705z"/>
	<path fill="#FFFFFF" d="M1103.688,41h2.819V62.54h-3.27l-10.949-17.399h-0.061V62.54h-2.819V41h3.449l10.77,17.399h0.061V41z"/>
	<path fill="#FFFFFF" d="M1117.301,41h8.729c5.61,0,9.06,4.26,9.06,10.47c0,4.83-2.1,11.069-9.18,11.069h-8.609V41z M1120.211,60.05
		h5.64c3.78,0,6.24-2.97,6.24-8.4s-2.49-8.16-6.45-8.16h-5.43V60.05z"/>
	<path fill="#FFFFFF" d="M1157.884,47.3c-0.15-3.33-2.91-4.38-5.34-4.38c-1.83,0-4.92,0.51-4.92,3.78c0,1.83,1.29,2.43,2.55,2.73
		l6.149,1.41c2.79,0.66,4.891,2.34,4.891,5.76c0,5.1-4.74,6.51-8.43,6.51c-3.99,0-5.55-1.2-6.51-2.07
		c-1.83-1.65-2.19-3.45-2.19-5.459h2.73c0,3.899,3.18,5.04,5.939,5.04c2.1,0,5.64-0.54,5.64-3.63c0-2.25-1.05-2.97-4.59-3.81
		l-4.41-1.02c-1.409-0.33-4.59-1.32-4.59-5.07c0-3.36,2.19-6.66,7.41-6.66c7.529,0,8.279,4.5,8.399,6.87H1157.884z"/>
	<path fill="#D1D3D4" d="M1173.897,59.959h10.92v2.58h-13.829V41h2.909V59.959z"/>
	<path fill="#D1D3D4" d="M1197.11,62.54h-2.91V41h2.91V62.54z"/>
	<path fill="#D1D3D4" d="M1211.084,62.54h-2.909V41h2.909V51.44L1221.523,41h4.021l-8.97,8.7l9.21,12.839h-3.78l-7.529-10.799
		l-3.391,3.24V62.54z"/>
	<path fill="#D1D3D4" d="M1250.468,62.54h-15.899V41h15.689v2.58h-12.779v6.6h11.789v2.58h-11.789v7.2h12.989V62.54z"/>
	<path fill="#FFFFFF" d="M20.009,98.54V85.82c0-0.63,0.06-3.36,0.06-5.37h-0.06l-6.06,18.089h-2.88L5.01,80.48H4.95
		c0,1.979,0.06,4.709,0.06,5.34V98.54H2.19V77h4.17l6.149,18.209h0.06L18.689,77h4.14V98.54H20.009z"/>
	<path fill="#FFFFFF" d="M49.757,98.54H33.858V77h15.689v2.58H36.768v6.6h11.79v2.58h-11.79v7.2h12.989V98.54z"/>
	<path fill="#D1D3D4" d="M62.765,95.959h10.919v2.58h-13.83V77h2.91V95.959z"/>
	<path fill="#D1D3D4" d="M92.213,99.109c-8.04,0-10.5-6.689-10.5-11.339s2.46-11.339,10.5-11.339s10.5,6.689,10.5,11.339
		S100.252,99.109,92.213,99.109z M92.213,79.01c-4.68,0-7.5,3.69-7.5,8.76s2.82,8.76,7.5,8.76s7.5-3.69,7.5-8.76
		S96.893,79.01,92.213,79.01z"/>
	<path fill="#D1D3D4" d="M121.841,99.109c-8.04,0-10.5-6.689-10.5-11.339s2.46-11.339,10.5-11.339s10.5,6.689,10.5,11.339
		S129.88,99.109,121.841,99.109z M121.841,79.01c-4.68,0-7.5,3.69-7.5,8.76s2.82,8.76,7.5,8.76s7.5-3.69,7.5-8.76
		S126.521,79.01,121.841,79.01z"/>
	<path fill="#D1D3D4" d="M144.989,98.54h-2.91V77h2.91V87.44L155.428,77h4.02l-8.97,8.7l9.209,12.839h-3.78l-7.53-10.799l-3.39,3.24
		V98.54z"/>
	<path fill="#D1D3D4" d="M181.366,83.3c-0.15-3.33-2.91-4.38-5.34-4.38c-1.83,0-4.92,0.51-4.92,3.78c0,1.83,1.29,2.43,2.55,2.73
		l6.15,1.41c2.79,0.66,4.89,2.34,4.89,5.76c0,5.1-4.74,6.51-8.43,6.51c-3.99,0-5.55-1.2-6.51-2.07c-1.83-1.65-2.19-3.45-2.19-5.459
		h2.73c0,3.899,3.18,5.04,5.94,5.04c2.1,0,5.64-0.54,5.64-3.63c0-2.25-1.05-2.97-4.59-3.81l-4.41-1.02
		c-1.41-0.33-4.59-1.32-4.59-5.07c0-3.36,2.19-6.66,7.41-6.66c7.53,0,8.28,4.5,8.399,6.87H181.366z"/>
	<path fill="#FFFFFF" d="M197.584,95.959h10.919v2.58h-13.83V77h2.91V95.959z"/>
	<path fill="#FFFFFF" d="M221.002,98.54h-2.91V77h2.91V98.54z"/>
	<path fill="#FFFFFF" d="M235.18,98.54h-2.91V77h2.91V87.44L245.62,77h4.02l-8.97,8.7l9.209,12.839h-3.78l-7.53-10.799l-3.39,3.24
		V98.54z"/>
	<path fill="#FFFFFF" d="M274.768,98.54h-15.899V77h15.689v2.58h-12.779v6.6h11.79v2.58h-11.79v7.2h12.99V98.54z"/>
	<path fill="#FFFFFF" d="M302.595,98.54V85.82c0-0.63,0.06-3.36,0.06-5.37h-0.06l-6.06,18.089h-2.88l-6.06-18.059h-0.06
		c0,1.979,0.06,4.709,0.06,5.34V98.54h-2.82V77h4.17l6.149,18.209h0.06L301.275,77h4.14V98.54H302.595z"/>
	<path fill="#FFFFFF" d="M332.343,98.54h-15.899V77h15.689v2.58h-12.779v6.6h11.79v2.58h-11.79v7.2h12.99V98.54z"/>
	<path fill="#FFFFFF" d="M345.711,98.54h-2.91V77h9.96c3.54,0,7.08,1.23,7.08,5.79c0,3.18-1.62,4.35-3,5.16
		c1.23,0.51,2.46,1.05,2.58,4.05l0.18,3.899c0.03,1.2,0.18,1.65,1.08,2.16v0.48h-3.57c-0.42-1.32-0.51-4.59-0.51-5.4
		c0-1.77-0.36-3.84-3.84-3.84h-7.05V98.54z M345.711,86.81h6.75c2.13,0,4.38-0.54,4.38-3.72c0-3.33-2.43-3.6-3.87-3.6h-7.26V86.81z"
		/>
	<path fill="#FFFFFF" d="M388.118,98.54V85.82c0-0.63,0.06-3.36,0.06-5.37h-0.06l-6.06,18.089h-2.88l-6.06-18.059h-0.06
		c0,1.979,0.06,4.709,0.06,5.34V98.54h-2.82V77h4.17l6.149,18.209h0.06L386.798,77h4.14V98.54H388.118z"/>
	<path fill="#A7A9AC" d="M410.156,98.54h-2.82V83.57h-4.92v-2.1c3.42-0.24,4.83-0.57,5.67-4.02h2.07V98.54z"/>
	<path fill="#A7A9AC" d="M439.754,83.48c-0.81-3.78-3.96-4.47-6.03-4.47c-3.9,0-7.05,2.88-7.05,8.55c0,5.07,1.8,8.97,7.14,8.97
		c1.89,0,5.16-0.9,6.15-5.91h2.82c-1.2,8.129-7.8,8.489-9.419,8.489c-4.89,0-9.69-3.18-9.69-11.459
		c0-6.629,3.78-11.219,10.05-11.219c5.55,0,8.43,3.45,8.85,7.049H439.754z"/>
	<path fill="#A7A9AC" d="M466.771,77h2.91V98.54h-2.91V88.49h-11.25v10.05h-2.91V77h2.91v8.91h11.25V77z"/>
	<path fill="#A7A9AC" d="M483.889,98.54h-2.91V77h2.91V98.54z"/>
	<path fill="#A7A9AC" d="M510.277,83.48c-0.81-3.78-3.96-4.47-6.03-4.47c-3.9,0-7.05,2.88-7.05,8.55c0,5.07,1.8,8.97,7.14,8.97
		c1.89,0,5.16-0.9,6.15-5.91h2.82c-1.2,8.129-7.8,8.489-9.419,8.489c-4.89,0-9.69-3.18-9.69-11.459
		c0-6.629,3.78-11.219,10.05-11.219c5.55,0,8.43,3.45,8.85,7.049H510.277z"/>
	<path fill="#A7A9AC" d="M526.015,98.54h-2.91V77h2.91V87.44L536.455,77h4.02l-8.97,8.7l9.209,12.839h-3.78l-7.53-10.799l-3.39,3.24
		V98.54z"/>
	<path fill="#A7A9AC" d="M565.602,98.54h-15.899V77h15.689v2.58h-12.779v6.6h11.79v2.58h-11.79v7.2h12.989V98.54z"/>
	<path fill="#A7A9AC" d="M589.979,77h2.82V98.54h-3.27L578.58,81.14h-0.06V98.54h-2.82V77h3.45L589.92,94.4h0.06V77z"/>
	<path fill="#FFFFFF" d="M621.377,98.54V85.82c0-0.63,0.06-3.36,0.06-5.37h-0.06l-6.06,18.089h-2.88l-6.06-18.059h-0.06
		c0,1.979,0.06,4.709,0.06,5.34V98.54h-2.82V77h4.17l6.149,18.209h0.06L620.058,77h4.14V98.54H621.377z"/>
	<path fill="#FFFFFF" d="M644.314,99.109c-8.039,0-10.499-6.689-10.499-11.339s2.46-11.339,10.499-11.339
		c8.04,0,10.5,6.689,10.5,11.339S652.354,99.109,644.314,99.109z M644.314,79.01c-4.68,0-7.499,3.69-7.499,8.76
		s2.819,8.76,7.499,8.76s7.5-3.69,7.5-8.76S648.994,79.01,644.314,79.01z"/>
	<path fill="#FFFFFF" d="M678.833,77h2.819V98.54h-3.27L667.434,81.14h-0.061V98.54h-2.82V77h3.451l10.77,17.399h0.06V77z"/>
	<path fill="#FFFFFF" d="M708.7,98.54h-15.899V77h15.689v2.58h-12.779v6.6H707.5v2.58h-11.789v7.2H708.7V98.54z"/>
	<path fill="#FFFFFF" d="M727.979,98.54h-2.91V89.87L716.939,77h3.39l6.18,10.35l6.18-10.35h3.42l-8.13,12.87V98.54z"/>
	<path fill="#939598" d="M748.307,98.54h-2.91V77h9.689c3.99,0,6.39,2.58,6.39,6.06c0,3-1.71,6.39-6.39,6.39h-6.779V98.54z
		 M748.307,86.96h5.789c2.61,0,4.38-0.96,4.38-3.87c0-2.73-1.859-3.6-4.26-3.6h-5.909V86.96z"/>
	<path fill="#939598" d="M780.784,99.109c-8.04,0-10.5-6.689-10.5-11.339s2.46-11.339,10.5-11.339
		c8.039,0,10.499,6.689,10.499,11.339S788.823,99.109,780.784,99.109z M780.784,79.01c-4.681,0-7.5,3.69-7.5,8.76
		s2.819,8.76,7.5,8.76c4.68,0,7.499-3.69,7.499-8.76S785.464,79.01,780.784,79.01z"/>
	<path fill="#939598" d="M803.932,95.959h10.92v2.58h-13.829V77h2.909V95.959z"/>
	<path fill="#939598" d="M827.35,98.54h-2.91V77h2.91V98.54z"/>
	<path fill="#939598" d="M836.758,77h17.489v2.58h-7.29V98.54h-2.909V79.58h-7.29V77z"/>
	<path fill="#939598" d="M866.595,98.54h-2.91V77h2.91V98.54z"/>
	<path fill="#939598" d="M892.982,83.48c-0.811-3.78-3.96-4.47-6.03-4.47c-3.899,0-7.05,2.88-7.05,8.55
		c0,5.07,1.801,8.97,7.141,8.97c1.89,0,5.159-0.9,6.149-5.91h2.819c-1.199,8.129-7.799,8.489-9.419,8.489
		c-4.89,0-9.689-3.18-9.689-11.459c0-6.629,3.779-11.219,10.049-11.219c5.55,0,8.43,3.45,8.85,7.049H892.982z"/>
	<path fill="#939598" d="M918.801,83.3c-0.15-3.33-2.91-4.38-5.34-4.38c-1.83,0-4.92,0.51-4.92,3.78c0,1.83,1.29,2.43,2.55,2.73
		l6.149,1.41c2.79,0.66,4.891,2.34,4.891,5.76c0,5.1-4.74,6.51-8.43,6.51c-3.99,0-5.55-1.2-6.51-2.07
		c-1.83-1.65-2.19-3.45-2.19-5.459h2.73c0,3.899,3.18,5.04,5.939,5.04c2.1,0,5.64-0.54,5.64-3.63c0-2.25-1.05-2.97-4.59-3.81
		l-4.41-1.02c-1.409-0.33-4.59-1.32-4.59-5.07c0-3.36,2.19-6.66,7.41-6.66c7.529,0,8.279,4.5,8.399,6.87H918.801z"/>
	<path fill="#FFFFFF" d="M932.048,77h9.479c4.021,0,6.09,2.49,6.09,5.43c0,1.41-0.51,3.39-2.88,4.5c1.41,0.57,3.9,1.56,3.9,5.25
		c0,3.45-2.55,6.36-7.32,6.36h-9.27V77z M934.958,86.12h5.25c2.79,0,4.499-0.84,4.499-3.48c0-2.01-1.229-3.15-4.47-3.15h-5.279
		V86.12z M934.958,96.05h6.21c3.029,0,4.56-1.53,4.56-3.93c0-3.03-2.67-3.63-5.04-3.63h-5.729V96.05z"/>
	<path fill="#FFFFFF" d="M961.796,92.27l-2.25,6.27h-3l8.1-21.539h3.3l7.8,21.539h-3.18l-2.13-6.27H961.796z M969.386,89.69
		l-3.181-9.479h-0.06l-3.45,9.479H969.386z"/>
	<path fill="#FFFFFF" d="M987.974,98.54h-2.91V77h9.96c3.54,0,7.08,1.23,7.08,5.79c0,3.18-1.62,4.35-3,5.16
		c1.229,0.51,2.46,1.05,2.579,4.05l0.181,3.899c0.029,1.2,0.18,1.65,1.08,2.16v0.48h-3.57c-0.42-1.32-0.51-4.59-0.51-5.4
		c0-1.77-0.36-3.84-3.84-3.84h-7.05V98.54z M987.974,86.81h6.75c2.13,0,4.38-0.54,4.38-3.72c0-3.33-2.431-3.6-3.87-3.6h-7.26V86.81z
		"/>
	<path fill="#FFFFFF" d="M1016.011,98.54h-2.91V77h2.91V98.54z"/>
	<path fill="#FFFFFF" d="M1040.269,83.3c-0.15-3.33-2.91-4.38-5.34-4.38c-1.83,0-4.92,0.51-4.92,3.78c0,1.83,1.29,2.43,2.55,2.73
		l6.149,1.41c2.79,0.66,4.891,2.34,4.891,5.76c0,5.1-4.74,6.51-8.43,6.51c-3.99,0-5.55-1.2-6.51-2.07
		c-1.83-1.65-2.19-3.45-2.19-5.459h2.73c0,3.899,3.18,5.04,5.939,5.04c2.1,0,5.64-0.54,5.64-3.63c0-2.25-1.05-2.97-4.59-3.81
		l-4.41-1.02c-1.409-0.33-4.59-1.32-4.59-5.07c0-3.36,2.19-6.66,7.41-6.66c7.529,0,8.279,4.5,8.399,6.87H1040.269z"/>
	<path fill="#FFFFFF" d="M1056.967,92.27l-2.25,6.27h-3l8.1-21.539h3.3l7.8,21.539h-3.18l-2.13-6.27H1056.967z M1064.557,89.69
		l-3.18-9.479h-0.061l-3.45,9.479H1064.557z"/>
	<path fill="#FFFFFF" d="M1094.153,77h2.819V98.54h-3.27l-10.949-17.399h-0.061V98.54h-2.819V77h3.449l10.77,17.399h0.061V77z"/>
	<path fill="#D1D3D4" d="M1122.101,77h2.819V98.54h-3.27l-10.949-17.399h-0.061V98.54h-2.819V77h3.449l10.77,17.399h0.061V77z"/>
	<path fill="#D1D3D4" d="M1139.158,92.27l-2.25,6.27h-3l8.1-21.539h3.3l7.8,21.539h-3.18l-2.13-6.27H1139.158z M1146.748,89.69
		l-3.18-9.479h-0.061l-3.45,9.479H1146.748z"/>
	<path fill="#D1D3D4" d="M1175.056,83.3c-0.15-3.33-2.91-4.38-5.34-4.38c-1.83,0-4.92,0.51-4.92,3.78c0,1.83,1.29,2.43,2.55,2.73
		l6.149,1.41c2.79,0.66,4.891,2.34,4.891,5.76c0,5.1-4.74,6.51-8.43,6.51c-3.99,0-5.55-1.2-6.51-2.07
		c-1.83-1.65-2.19-3.45-2.19-5.459h2.73c0,3.899,3.18,5.04,5.939,5.04c2.1,0,5.64-0.54,5.64-3.63c0-2.25-1.05-2.97-4.59-3.81
		l-4.41-1.02c-1.409-0.33-4.59-1.32-4.59-5.07c0-3.36,2.19-6.66,7.41-6.66c7.529,0,8.279,4.5,8.399,6.87H1175.056z"/>
	<path fill="#808285" d="M1191.724,98.54h-2.91V77h2.91V98.54z"/>
	<path fill="#808285" d="M1212.382,99.109c-8.04,0-10.5-6.689-10.5-11.339s2.46-11.339,10.5-11.339
		c8.039,0,10.499,6.689,10.499,11.339S1220.421,99.109,1212.382,99.109z M1212.382,79.01c-4.681,0-7.5,3.69-7.5,8.76
		s2.819,8.76,7.5,8.76c4.68,0,7.499-3.69,7.499-8.76S1217.062,79.01,1212.382,79.01z"/>
	<path fill="#808285" d="M1246.899,77h2.819V98.54h-3.27L1235.5,81.14h-0.061V98.54h-2.819V77h3.449l10.77,17.399h0.061V77z"/>
	<path fill="#808285" d="M5.67,128.27l-2.25,6.27h-3L8.52,113h3.3l7.8,21.539h-3.18l-2.13-6.27H5.67z M13.259,125.69l-3.18-9.479
		h-0.06l-3.45,9.479H13.259z"/>
	<path fill="#808285" d="M31.2,131.959h10.919v2.58H28.29V113h2.91V131.959z"/>
	<path fill="#FFFFFF" d="M54.24,134.54h-2.91V113h9.959c3.54,0,7.08,1.23,7.08,5.79c0,3.18-1.62,4.35-3,5.16
		c1.23,0.51,2.46,1.05,2.58,4.05l0.18,3.899c0.03,1.2,0.18,1.65,1.08,2.16v0.48h-3.57c-0.42-1.32-0.51-4.59-0.51-5.4
		c0-1.77-0.36-3.84-3.84-3.84h-7.05V134.54z M54.24,122.81h6.75c2.13,0,4.38-0.54,4.38-3.72c0-3.33-2.43-3.6-3.87-3.6h-7.26V122.81z
		"/>
	<path fill="#FFFFFF" d="M87.419,135.109c-8.04,0-10.5-6.689-10.5-11.339s2.46-11.339,10.5-11.339s10.5,6.689,10.5,11.339
		S95.459,135.109,87.419,135.109z M87.419,115.01c-4.68,0-7.5,3.69-7.5,8.76s2.82,8.76,7.5,8.76s7.5-3.69,7.5-8.76
		S92.099,115.01,87.419,115.01z"/>
	<path fill="#FFFFFF" d="M120.359,119.3c-0.15-3.33-2.91-4.38-5.34-4.38c-1.83,0-4.92,0.51-4.92,3.78c0,1.83,1.29,2.43,2.55,2.73
		l6.15,1.41c2.79,0.66,4.89,2.34,4.89,5.76c0,5.1-4.74,6.51-8.43,6.51c-3.99,0-5.55-1.2-6.51-2.07c-1.83-1.65-2.19-3.45-2.19-5.459
		h2.73c0,3.899,3.18,5.04,5.94,5.04c2.1,0,5.64-0.54,5.64-3.63c0-2.25-1.05-2.97-4.59-3.81l-4.41-1.02
		c-1.41-0.33-4.59-1.32-4.59-5.07c0-3.36,2.19-6.66,7.41-6.66c7.53,0,8.28,4.5,8.399,6.87H120.359z"/>
	<path fill="#FFFFFF" d="M151.109,134.54V121.82c0-0.63,0.06-3.36,0.06-5.37h-0.06l-6.06,18.089h-2.88l-6.06-18.059h-0.06
		c0,1.979,0.06,4.709,0.06,5.34v12.719h-2.82V113h4.17l6.149,18.209h0.06l6.12-18.209h4.14v21.539H151.109z"/>
	<path fill="#FFFFFF" d="M167.759,128.27l-2.25,6.27h-3l8.1-21.539h3.3l7.8,21.539h-3.18l-2.13-6.27H167.759z M175.349,125.69
		l-3.18-9.479h-0.06l-3.45,9.479H175.349z"/>
	<path fill="#FFFFFF" d="M204.568,113h2.91v21.539h-2.91v-10.05h-11.25v10.05h-2.91V113h2.91v8.91h11.25V113z"/>
	<path fill="#D1D3D4" d="M235.768,134.54V121.82c0-0.63,0.06-3.36,0.06-5.37h-0.06l-6.06,18.089h-2.88l-6.06-18.059h-0.06
		c0,1.979,0.06,4.709,0.06,5.34v12.719h-2.82V113h4.17l6.149,18.209h0.06l6.12-18.209h4.14v21.539H235.768z"/>
	<path fill="#D1D3D4" d="M252.418,128.27l-2.25,6.27h-3l8.1-21.539h3.3l7.8,21.539h-3.18l-2.13-6.27H252.418z M260.008,125.69
		l-3.18-9.479h-0.06l-3.45,9.479H260.008z"/>
	<path fill="#D1D3D4" d="M289.317,113h2.82v21.539h-3.27l-10.95-17.399h-0.06v17.399h-2.82V113h3.45l10.77,17.399h0.06V113z"/>
	<path fill="#D1D3D4" d="M315.688,119.3c-0.15-3.33-2.91-4.38-5.34-4.38c-1.83,0-4.92,0.51-4.92,3.78c0,1.83,1.29,2.43,2.55,2.73
		l6.15,1.41c2.79,0.66,4.89,2.34,4.89,5.76c0,5.1-4.74,6.51-8.43,6.51c-3.99,0-5.55-1.2-6.51-2.07c-1.83-1.65-2.19-3.45-2.19-5.459
		h2.73c0,3.899,3.18,5.04,5.94,5.04c2.1,0,5.64-0.54,5.64-3.63c0-2.25-1.05-2.97-4.59-3.81l-4.41-1.02
		c-1.41-0.33-4.59-1.32-4.59-5.07c0-3.36,2.19-6.66,7.41-6.66c7.53,0,8.28,4.5,8.399,6.87H315.688z"/>
	<path fill="#D1D3D4" d="M338.097,135.109c-8.04,0-10.5-6.689-10.5-11.339s2.46-11.339,10.5-11.339s10.5,6.689,10.5,11.339
		S346.137,135.109,338.097,135.109z M338.097,115.01c-4.68,0-7.5,3.69-7.5,8.76s2.82,8.76,7.5,8.76s7.5-3.69,7.5-8.76
		S342.777,115.01,338.097,115.01z"/>
	<path fill="#D1D3D4" d="M361.317,134.54h-2.91V113h9.96c3.54,0,7.08,1.23,7.08,5.79c0,3.18-1.62,4.35-3,5.16
		c1.23,0.51,2.46,1.05,2.58,4.05l0.18,3.899c0.03,1.2,0.18,1.65,1.08,2.16v0.48h-3.57c-0.42-1.32-0.51-4.59-0.51-5.4
		c0-1.77-0.36-3.84-3.84-3.84h-7.05V134.54z M361.317,122.81h6.75c2.13,0,4.38-0.54,4.38-3.72c0-3.33-2.43-3.6-3.87-3.6h-7.26
		V122.81z"/>
	<path fill="#FFFFFF" d="M399.896,113h2.91v21.539h-2.91v-10.05h-11.25v10.05h-2.91V113h2.91v8.91h11.25V113z"/>
	<path fill="#FFFFFF" d="M416.757,128.27l-2.25,6.27h-3l8.1-21.539h3.3l7.8,21.539h-3.18l-2.13-6.27H416.757z M424.346,125.69
		l-3.18-9.479h-0.06l-3.45,9.479H424.346z"/>
	<path fill="#FFFFFF" d="M453.656,113h2.82v21.539h-3.27l-10.95-17.399h-0.06v17.399h-2.82V113h3.45l10.77,17.399h0.06V113z"/>
	<path fill="#FFFFFF" d="M467.186,113h8.73c5.61,0,9.06,4.26,9.06,10.47c0,4.83-2.1,11.069-9.18,11.069h-8.61V113z M470.096,132.05
		h5.64c3.78,0,6.24-2.97,6.24-8.4s-2.49-8.16-6.45-8.16h-5.43V132.05z"/>
	<path fill="#FFFFFF" d="M494.636,113h9.48c4.02,0,6.089,2.49,6.089,5.43c0,1.41-0.51,3.39-2.88,4.5c1.41,0.57,3.9,1.56,3.9,5.25
		c0,3.45-2.55,6.36-7.319,6.36h-9.27V113z M497.546,122.12h5.25c2.79,0,4.5-0.84,4.5-3.48c0-2.01-1.23-3.15-4.47-3.15h-5.28V122.12z
		 M497.546,132.05h6.209c3.03,0,4.56-1.53,4.56-3.93c0-3.03-2.67-3.63-5.04-3.63h-5.729V132.05z"/>
	<path fill="#FFFFFF" d="M524.096,128.27l-2.25,6.27h-3l8.1-21.539h3.3l7.8,21.539h-3.18l-2.13-6.27H524.096z M531.685,125.69
		l-3.18-9.479h-0.06l-3.45,9.479H531.685z"/>
	<path fill="#FFFFFF" d="M555.205,123.02h9.45v11.52h-1.89l-0.69-2.79c-1.47,2.04-4.169,3.36-7.109,3.36c-3.69,0-5.49-1.35-6.6-2.43
		c-3.3-3.12-3.39-6.81-3.39-9.09c0-5.25,3.18-11.159,10.2-11.159c4.02,0,8.49,2.28,9.12,7.109h-2.82c-0.93-3.75-4.08-4.53-6.45-4.53
		c-3.87,0-7.05,3.09-7.05,8.73c0,4.379,1.44,8.879,7.169,8.879c1.08,0,2.82-0.12,4.41-1.38c1.89-1.5,2.37-3.42,2.37-5.73h-6.72
		V123.02z"/>
	<path fill="#6D6E71" d="M578.365,134.54h-2.91V113h9.689c3.99,0,6.39,2.58,6.39,6.06c0,3-1.71,6.39-6.39,6.39h-6.78V134.54z
		 M578.365,122.96h5.79c2.61,0,4.379-0.96,4.379-3.87c0-2.73-1.86-3.6-4.26-3.6h-5.91V122.96z"/>
	<path fill="#6D6E71" d="M600.955,128.27l-2.25,6.27h-3l8.1-21.539h3.3l7.8,21.539h-3.18l-2.13-6.27H600.955z M608.544,125.69
		l-3.18-9.479h-0.06l-3.45,9.479H608.544z"/>
	<path fill="#6D6E71" d="M626.485,134.54h-2.91V113h2.91v10.439L636.924,113h4.021l-8.97,8.7l9.209,12.839h-3.779l-7.529-10.799
		l-3.39,3.24V134.54z"/>
	<path fill="#6D6E71" d="M652.975,128.27l-2.25,6.27h-3l8.1-21.539h3.3l7.8,21.539h-3.18l-2.13-6.27H652.975z M660.564,125.69
		l-3.18-9.479h-0.061l-3.449,9.479H660.564z"/>
	<path fill="#6D6E71" d="M670.135,113h17.489v2.58h-7.29v18.959h-2.91V115.58h-7.289V113z"/>
	<path fill="#6D6E71" d="M696.114,128.27l-2.25,6.27h-3l8.1-21.539h3.3l7.8,21.539h-3.18l-2.13-6.27H696.114z M703.703,125.69
		l-3.18-9.479h-0.06l-3.45,9.479H703.703z"/>
	<path fill="#6D6E71" d="M733.014,113h2.819v21.539h-3.27l-10.95-17.399h-0.06v17.399h-2.819V113h3.449l10.77,17.399h0.061V113z"/>
	<path fill="#FFFFFF" d="M749.663,134.54h-2.91V113h9.96c3.54,0,7.08,1.23,7.08,5.79c0,3.18-1.62,4.35-3,5.16
		c1.229,0.51,2.46,1.05,2.579,4.05l0.181,3.899c0.029,1.2,0.18,1.65,1.08,2.16v0.48h-3.57c-0.42-1.32-0.51-4.59-0.51-5.4
		c0-1.77-0.36-3.84-3.84-3.84h-7.05V134.54z M749.663,122.81h6.75c2.13,0,4.38-0.54,4.38-3.72c0-3.33-2.431-3.6-3.87-3.6h-7.26
		V122.81z"/>
	<path fill="#FFFFFF" d="M777.443,128.27l-2.25,6.27h-3l8.1-21.539h3.3l7.8,21.539h-3.18l-2.13-6.27H777.443z M785.033,125.69
		l-3.18-9.479h-0.061l-3.45,9.479H785.033z"/>
	<path fill="#FFFFFF" d="M802.973,134.54h-2.909V113h2.909v10.439L813.412,113h4.021l-8.97,8.7l9.21,12.839h-3.78l-7.529-10.799
		l-3.391,3.24V134.54z"/>
	<path fill="#FFFFFF" d="M835.253,134.54h-2.91v-8.669l-8.13-12.87h3.39l6.18,10.35l6.18-10.35h3.42l-8.129,12.87V134.54z"/>
	<path fill="#FFFFFF" d="M852.174,128.27l-2.25,6.27h-3l8.1-21.539h3.3l7.8,21.539h-3.18l-2.13-6.27H852.174z M859.764,125.69
		l-3.18-9.479h-0.061l-3.45,9.479H859.764z"/>
	<path fill="#FFFFFF" d="M869.333,113h17.489v2.58h-7.29v18.959h-2.909V115.58h-7.29V113z"/>
	<path fill="#D1D3D4" d="M908.512,119.3c-0.15-3.33-2.91-4.38-5.34-4.38c-1.83,0-4.92,0.51-4.92,3.78c0,1.83,1.29,2.43,2.55,2.73
		l6.149,1.41c2.79,0.66,4.891,2.34,4.891,5.76c0,5.1-4.74,6.51-8.43,6.51c-3.99,0-5.55-1.2-6.51-2.07
		c-1.83-1.65-2.19-3.45-2.19-5.459h2.73c0,3.899,3.18,5.04,5.939,5.04c2.1,0,5.64-0.54,5.64-3.63c0-2.25-1.05-2.97-4.59-3.81
		l-4.41-1.02c-1.409-0.33-4.59-1.32-4.59-5.07c0-3.36,2.19-6.66,7.41-6.66c7.529,0,8.279,4.5,8.399,6.87H908.512z"/>
	<path fill="#D1D3D4" d="M935.722,113h2.909v21.539h-2.909v-10.05h-11.25v10.05h-2.91V113h2.91v8.91h11.25V113z"/>
	<path fill="#D1D3D4" d="M958.582,135.109c-8.04,0-10.5-6.689-10.5-11.339s2.46-11.339,10.5-11.339
		c8.039,0,10.499,6.689,10.499,11.339S966.621,135.109,958.582,135.109z M958.582,115.01c-4.681,0-7.5,3.69-7.5,8.76
		s2.819,8.76,7.5,8.76c4.68,0,7.499-3.69,7.499-8.76S963.262,115.01,958.582,115.01z"/>
	<path fill="#D1D3D4" d="M981.742,134.54h-2.91V113h9.689c3.99,0,6.39,2.58,6.39,6.06c0,3-1.71,6.39-6.39,6.39h-6.779V134.54z
		 M981.742,122.96h5.789c2.61,0,4.38-0.96,4.38-3.87c0-2.73-1.859-3.6-4.26-3.6h-5.909V122.96z"/>
	<path fill="#D1D3D4" d="M1007.752,134.54h-2.91V113h9.689c3.99,0,6.39,2.58,6.39,6.06c0,3-1.71,6.39-6.39,6.39h-6.779V134.54z
		 M1007.752,122.96h5.789c2.61,0,4.38-0.96,4.38-3.87c0-2.73-1.859-3.6-4.26-3.6h-5.909V122.96z"/>
	<path fill="#D1D3D4" d="M1033.911,134.54h-2.91V113h2.91V134.54z"/>
	<path fill="#D1D3D4" d="M1059.171,113h2.819v21.539h-3.27l-10.949-17.399h-0.061v17.399h-2.819V113h3.449l10.77,17.399h0.061V113z"
		/>
	<path fill="#D1D3D4" d="M1081.94,123.02h9.449v11.52h-1.89l-0.69-2.79c-1.47,2.04-4.17,3.36-7.109,3.36c-3.69,0-5.49-1.35-6.6-2.43
		c-3.3-3.12-3.39-6.81-3.39-9.09c0-5.25,3.18-11.159,10.199-11.159c4.02,0,8.489,2.28,9.119,7.109h-2.819
		c-0.93-3.75-4.08-4.53-6.45-4.53c-3.869,0-7.05,3.09-7.05,8.73c0,4.379,1.44,8.879,7.17,8.879c1.08,0,2.82-0.12,4.41-1.38
		c1.89-1.5,2.37-3.42,2.37-5.73h-6.72V123.02z"/>
	<path fill="#FFFFFF" d="M1114.88,119.3c-0.15-3.33-2.91-4.38-5.34-4.38c-1.83,0-4.92,0.51-4.92,3.78c0,1.83,1.29,2.43,2.55,2.73
		l6.149,1.41c2.79,0.66,4.891,2.34,4.891,5.76c0,5.1-4.74,6.51-8.43,6.51c-3.99,0-5.55-1.2-6.51-2.07
		c-1.83-1.65-2.19-3.45-2.19-5.459h2.73c0,3.899,3.18,5.04,5.939,5.04c2.1,0,5.64-0.54,5.64-3.63c0-2.25-1.05-2.97-4.59-3.81
		l-4.41-1.02c-1.409-0.33-4.59-1.32-4.59-5.07c0-3.36,2.19-6.66,7.41-6.66c7.529,0,8.279,4.5,8.399,6.87H1114.88z"/>
	<path fill="#FFFFFF" d="M1131.11,134.54h-2.91V113h9.689c3.99,0,6.39,2.58,6.39,6.06c0,3-1.71,6.39-6.39,6.39h-6.779V134.54z
		 M1131.11,122.96h5.789c2.61,0,4.38-0.96,4.38-3.87c0-2.73-1.859-3.6-4.26-3.6h-5.909V122.96z"/>
	<path fill="#FFFFFF" d="M1157.18,134.54h-2.91V113h9.96c3.54,0,7.079,1.23,7.079,5.79c0,3.18-1.619,4.35-2.999,5.16
		c1.229,0.51,2.46,1.05,2.579,4.05l0.181,3.899c0.029,1.2,0.18,1.65,1.08,2.16v0.48h-3.57c-0.42-1.32-0.51-4.59-0.51-5.4
		c0-1.77-0.36-3.84-3.84-3.84h-7.05V134.54z M1157.18,122.81h6.75c2.13,0,4.38-0.54,4.38-3.72c0-3.33-2.431-3.6-3.87-3.6h-7.26
		V122.81z"/>
	<path fill="#FFFFFF" d="M1197.769,134.54h-15.899V113h15.689v2.58h-12.779v6.6h11.789v2.58h-11.789v7.2h12.989V134.54z"/>
	<path fill="#FFFFFF" d="M1223.778,134.54h-15.899V113h15.689v2.58h-12.779v6.6h11.789v2.58h-11.789v7.2h12.989V134.54z"/>
	<path fill="#FFFFFF" d="M1236.979,128.27l-2.25,6.27h-3l8.1-21.539h3.3l7.8,21.539h-3.18l-2.13-6.27H1236.979z M1244.568,125.69
		l-3.18-9.479h-0.061l-3.45,9.479H1244.568z"/>
	<path fill="#FFFFFF" d="M16.56,149h2.82v21.539h-3.27L5.16,153.14H5.1v17.399H2.28V149h3.45L16.5,166.4h0.06V149z"/>
	<path fill="#FFFFFF" d="M33.683,164.27l-2.25,6.27h-3l8.1-21.539h3.3l7.8,21.539h-3.18l-2.13-6.27H33.683z M41.272,161.69
		l-3.18-9.479h-0.06l-3.45,9.479H41.272z"/>
	<path fill="#FFFFFF" d="M59.925,170.54h-2.91V149h9.959c3.54,0,7.08,1.23,7.08,5.79c0,3.18-1.62,4.35-3,5.16
		c1.23,0.51,2.46,1.05,2.58,4.05l0.18,3.899c0.03,1.2,0.18,1.65,1.08,2.16v0.48h-3.57c-0.42-1.32-0.51-4.59-0.51-5.4
		c0-1.77-0.36-3.84-3.84-3.84h-7.05V170.54z M59.925,158.81h6.75c2.13,0,4.38-0.54,4.38-3.72c0-3.33-2.43-3.6-3.87-3.6h-7.26V158.81
		z"/>
	<path fill="#FFFFFF" d="M81.908,149h17.489v2.58h-7.29v18.959h-2.91V151.58h-7.29V149z"/>
	<path fill="#FFFFFF" d="M111.811,170.54h-2.91V149h2.91V170.54z"/>
	<path fill="#FFFFFF" d="M138.264,155.48c-0.81-3.78-3.96-4.47-6.03-4.47c-3.9,0-7.05,2.88-7.05,8.55c0,5.07,1.8,8.97,7.14,8.97
		c1.89,0,5.16-0.9,6.15-5.91h2.82c-1.2,8.129-7.8,8.489-9.419,8.489c-4.89,0-9.69-3.18-9.69-11.459
		c0-6.629,3.78-11.219,10.05-11.219c5.55,0,8.43,3.45,8.85,7.049H138.264z"/>
	<path fill="#FFFFFF" d="M154.547,164.27l-2.25,6.27h-3l8.1-21.539h3.3l7.8,21.539h-3.18l-2.13-6.27H154.547z M162.136,161.69
		l-3.18-9.479h-0.06l-3.45,9.479H162.136z"/>
	<path fill="#FFFFFF" d="M172.06,149h17.489v2.58h-7.29v18.959h-2.91V151.58h-7.29V149z"/>
	<path fill="#FFFFFF" d="M201.872,170.54h-2.91V149h9.96c3.54,0,7.08,1.23,7.08,5.79c0,3.18-1.62,4.35-3,5.16
		c1.23,0.51,2.46,1.05,2.58,4.05l0.18,3.899c0.03,1.2,0.18,1.65,1.08,2.16v0.48h-3.57c-0.42-1.32-0.51-4.59-0.51-5.4
		c0-1.77-0.36-3.84-3.84-3.84h-7.05V170.54z M201.872,158.81h6.75c2.13,0,4.38-0.54,4.38-3.72c0-3.33-2.43-3.6-3.87-3.6h-7.26
		V158.81z"/>
	<path fill="#FFFFFF" d="M229.975,170.54h-2.91V149h2.91V170.54z"/>
	<path fill="#FFFFFF" d="M244.518,170.54h-2.91V149h9.689c3.99,0,6.39,2.58,6.39,6.06c0,3-1.71,6.39-6.39,6.39h-6.78V170.54z
		 M244.518,158.96h5.79c2.61,0,4.379-0.96,4.379-3.87c0-2.73-1.86-3.6-4.26-3.6h-5.91V158.96z"/>
	<path fill="#FFFFFF" d="M285.4,170.54V157.82c0-0.63,0.06-3.36,0.06-5.37h-0.06l-6.06,18.089h-2.88l-6.06-18.059h-0.06
		c0,1.979,0.06,4.709,0.06,5.34v12.719h-2.82V149h4.17l6.149,18.209h0.06L284.08,149h4.14v21.539H285.4z"/>
	<path fill="#FFFFFF" d="M302.403,164.27l-2.25,6.27h-3l8.1-21.539h3.3l7.8,21.539h-3.18l-2.13-6.27H302.403z M309.993,161.69
		l-3.18-9.479h-0.06l-3.45,9.479H309.993z"/>
	<path fill="#FFFFFF" d="M328.287,167.959h10.919v2.58h-13.83V149h2.91V167.959z"/>
	<path fill="#FFFFFF" d="M351.8,164.27l-2.25,6.27h-3l8.1-21.539h3.3l7.8,21.539h-3.18l-2.13-6.27H351.8z M359.389,161.69
		l-3.18-9.479h-0.06l-3.45,9.479H359.389z"/>
	<path fill="#FFFFFF" d="M380.953,170.54h-2.91v-8.669l-8.13-12.87h3.39l6.18,10.35l6.18-10.35h3.42l-8.13,12.87V170.54z"/>
	<path fill="#FFFFFF" d="M411.125,155.3c-0.15-3.33-2.91-4.38-5.34-4.38c-1.83,0-4.92,0.51-4.92,3.78c0,1.83,1.29,2.43,2.55,2.73
		l6.15,1.41c2.79,0.66,4.89,2.34,4.89,5.76c0,5.1-4.74,6.51-8.43,6.51c-3.99,0-5.55-1.2-6.51-2.07c-1.83-1.65-2.19-3.45-2.19-5.459
		h2.73c0,3.899,3.18,5.04,5.94,5.04c2.1,0,5.64-0.54,5.64-3.63c0-2.25-1.05-2.97-4.59-3.81l-4.41-1.02
		c-1.41-0.33-4.59-1.32-4.59-5.07c0-3.36,2.19-6.66,7.41-6.66c7.53,0,8.28,4.5,8.4,6.87H411.125z"/>
	<path fill="#FFFFFF" d="M427.858,170.54h-2.91V149h2.91V170.54z"/>
	<path fill="#FFFFFF" d="M442.582,164.27l-2.25,6.27h-3l8.1-21.539h3.3l7.8,21.539h-3.18l-2.13-6.27H442.582z M450.171,161.69
		l-3.18-9.479h-0.06l-3.45,9.479H450.171z"/>
	<path fill="#A7A9AC" d="M465.494,149h9.48c4.02,0,6.089,2.49,6.089,5.43c0,1.41-0.51,3.39-2.88,4.5c1.41,0.57,3.9,1.56,3.9,5.25
		c0,3.45-2.55,6.36-7.319,6.36h-9.27V149z M468.404,158.12h5.25c2.79,0,4.5-0.84,4.5-3.48c0-2.01-1.23-3.15-4.47-3.15h-5.28V158.12z
		 M468.404,168.05h6.209c3.03,0,4.56-1.53,4.56-3.93c0-3.03-2.67-3.63-5.04-3.63h-5.729V168.05z"/>
	<path fill="#A7A9AC" d="M501.307,171.109c-8.04,0-10.5-6.689-10.5-11.339s2.46-11.339,10.5-11.339s10.5,6.689,10.5,11.339
		S509.346,171.109,501.307,171.109z M501.307,151.01c-4.68,0-7.5,3.69-7.5,8.76s2.82,8.76,7.5,8.76s7.5-3.69,7.5-8.76
		S505.986,151.01,501.307,151.01z"/>
	<path fill="#A7A9AC" d="M524.521,167.959h10.919v2.58h-13.83V149h2.91V167.959z"/>
	<path fill="#A7A9AC" d="M560.843,170.54h-15.899V149h15.689v2.58h-12.779v6.6h11.79v2.58h-11.79v7.2h12.989V170.54z"/>
	<path fill="#A7A9AC" d="M585.196,149h2.91v21.539h-2.91v-10.05h-11.25v10.05h-2.91V149h2.91v8.91h11.25V149z"/>
	<path fill="#FFFFFF" d="M597.159,149h17.489v2.58h-7.29v18.959h-2.91V151.58h-7.29V149z"/>
	<path fill="#FFFFFF" d="M623.492,164.27l-2.25,6.27h-3l8.1-21.539h3.299l7.801,21.539h-3.18l-2.131-6.27H623.492z M631.081,161.69
		l-3.18-9.479h-0.06l-3.45,9.479H631.081z"/>
	<path fill="#FFFFFF" d="M649.375,167.959h10.919v2.58h-13.829V149h2.91V167.959z"/>
	<path fill="#FFFFFF" d="M685.697,170.54h-15.899V149h15.688v2.58h-12.779v6.6h11.79v2.58h-11.79v7.2h12.99V170.54z"/>
	<path fill="#FFFFFF" d="M710.14,149h2.82v21.539h-3.271L698.74,153.14h-0.061v17.399h-2.819V149h3.45l10.77,17.399h0.06V149z"/>
	<path fill="#FFFFFF" d="M722.014,149h17.489v2.58h-7.29v18.959h-2.909V151.58h-7.29V149z"/>
	<path fill="#FFFFFF" d="M763.676,155.48c-0.811-3.78-3.96-4.47-6.03-4.47c-3.899,0-7.05,2.88-7.05,8.55
		c0,5.07,1.801,8.97,7.141,8.97c1.89,0,5.159-0.9,6.149-5.91h2.819c-1.199,8.129-7.799,8.489-9.419,8.489
		c-4.89,0-9.689-3.18-9.689-11.459c0-6.629,3.779-11.219,10.049-11.219c5.55,0,8.43,3.45,8.85,7.049H763.676z"/>
	<path fill="#FFFFFF" d="M785.959,171.109c-8.04,0-10.5-6.689-10.5-11.339s2.46-11.339,10.5-11.339
		c8.039,0,10.499,6.689,10.499,11.339S793.998,171.109,785.959,171.109z M785.959,151.01c-4.681,0-7.5,3.69-7.5,8.76
		s2.819,8.76,7.5,8.76c4.68,0,7.499-3.69,7.499-8.76S790.639,151.01,785.959,151.01z"/>
	<path fill="#FFFFFF" d="M809.531,170.54h-2.91V149h9.96c3.54,0,7.079,1.23,7.079,5.79c0,3.18-1.619,4.35-2.999,5.16
		c1.229,0.51,2.46,1.05,2.579,4.05l0.181,3.899c0.029,1.2,0.18,1.65,1.08,2.16v0.48h-3.57c-0.42-1.32-0.51-4.59-0.51-5.4
		c0-1.77-0.36-3.84-3.84-3.84h-7.05V170.54z M809.531,158.81h6.75c2.13,0,4.38-0.54,4.38-3.72c0-3.33-2.431-3.6-3.87-3.6h-7.26
		V158.81z"/>
	<path fill="#FFFFFF" d="M837.485,170.54h-2.91V149h9.689c3.99,0,6.39,2.58,6.39,6.06c0,3-1.71,6.39-6.39,6.39h-6.779V170.54z
		 M837.485,158.96h5.789c2.61,0,4.38-0.96,4.38-3.87c0-2.73-1.859-3.6-4.26-3.6h-5.909V158.96z"/>
	<path fill="#BCBEC0" d="M860.577,149h9.479c4.021,0,6.09,2.49,6.09,5.43c0,1.41-0.51,3.39-2.88,4.5c1.41,0.57,3.9,1.56,3.9,5.25
		c0,3.45-2.55,6.36-7.32,6.36h-9.27V149z M863.487,158.12h5.25c2.79,0,4.499-0.84,4.499-3.48c0-2.01-1.229-3.15-4.47-3.15h-5.279
		V158.12z M863.487,168.05h6.21c3.029,0,4.56-1.53,4.56-3.93c0-3.03-2.67-3.63-5.04-3.63h-5.729V168.05z"/>
	<path fill="#BCBEC0" d="M890.271,170.54h-2.91V149h9.96c3.54,0,7.08,1.23,7.08,5.79c0,3.18-1.62,4.35-3,5.16
		c1.229,0.51,2.46,1.05,2.579,4.05l0.181,3.899c0.029,1.2,0.18,1.65,1.08,2.16v0.48h-3.57c-0.42-1.32-0.51-4.59-0.51-5.4
		c0-1.77-0.36-3.84-3.84-3.84h-7.05V170.54z M890.271,158.81h6.75c2.13,0,4.38-0.54,4.38-3.72c0-3.33-2.431-3.6-3.87-3.6h-7.26
		V158.81z"/>
	<path fill="#BCBEC0" d="M918.403,164.27l-2.25,6.27h-3l8.1-21.539h3.3l7.8,21.539h-3.18l-2.13-6.27H918.403z M925.993,161.69
		l-3.181-9.479h-0.06l-3.45,9.479H925.993z"/>
	<path fill="#BCBEC0" d="M944.735,170.54h-2.91V149h2.91V170.54z"/>
	<path fill="#BCBEC0" d="M970.349,149h2.819v21.539h-3.27l-10.949-17.399h-0.061v17.399h-2.819V149h3.449l10.77,17.399h0.061V149z"
		/>
	<path fill="#FFFFFF" d="M984.231,149h8.729c5.61,0,9.06,4.26,9.06,10.47c0,4.83-2.1,11.069-9.179,11.069h-8.61V149z
		 M987.142,168.05h5.64c3.78,0,6.24-2.97,6.24-8.4s-2.49-8.16-6.45-8.16h-5.43V168.05z"/>
	<path fill="#FFFFFF" d="M1015.363,170.54h-2.91V149h9.96c3.54,0,7.079,1.23,7.079,5.79c0,3.18-1.619,4.35-2.999,5.16
		c1.229,0.51,2.46,1.05,2.579,4.05l0.181,3.899c0.029,1.2,0.18,1.65,1.08,2.16v0.48h-3.57c-0.42-1.32-0.51-4.59-0.51-5.4
		c0-1.77-0.36-3.84-3.84-3.84h-7.05V170.54z M1015.363,158.81h6.75c2.13,0,4.38-0.54,4.38-3.72c0-3.33-2.431-3.6-3.87-3.6h-7.26
		V158.81z"/>
	<path fill="#FFFFFF" d="M1043.496,164.27l-2.25,6.27h-3l8.1-21.539h3.3l7.8,21.539h-3.18l-2.13-6.27H1043.496z M1051.086,161.69
		l-3.18-9.479h-0.061l-3.45,9.479H1051.086z"/>
	<path fill="#FFFFFF" d="M1069.829,170.54h-2.91V149h2.91V170.54z"/>
	<path fill="#FFFFFF" d="M1095.441,149h2.819v21.539h-3.27l-10.949-17.399h-0.061v17.399h-2.819V149h3.449l10.77,17.399h0.061V149z"
		/>
	<path fill="#FFFFFF" d="M1126.214,149v13.979c0,4.41-2.76,8.129-8.67,8.129c-5.79,0-8.279-3.72-8.279-7.74V149h2.909v13.56
		c0,4.68,2.851,5.97,5.46,5.97c2.67,0,5.67-1.23,5.67-5.91V149H1126.214z"/>
	<path fill="#FFFFFF" d="M1151.466,149h2.819v21.539h-3.27l-10.949-17.399h-0.061v17.399h-2.819V149h3.449l10.77,17.399h0.061V149z"
		/>
	<path fill="#FFFFFF" d="M1168.559,170.54h-2.91V149h2.91V170.54z"/>
	<path fill="#FFFFFF" d="M1193.751,149h3.27l-7.859,21.539h-3.09l-7.86-21.539h3.24l6.149,18.359h0.061L1193.751,149z"/>
	<path fill="#FFFFFF" d="M1222.454,170.54h-15.899V149h15.689v2.58h-12.779v6.6h11.789v2.58h-11.789v7.2h12.989V170.54z"/>
	<path fill="#FFFFFF" d="M1235.888,170.54h-2.91V149h9.96c3.54,0,7.08,1.23,7.08,5.79c0,3.18-1.62,4.35-3,5.16
		c1.229,0.51,2.46,1.05,2.579,4.05l0.181,3.899c0.029,1.2,0.18,1.65,1.08,2.16v0.48h-3.57c-0.42-1.32-0.51-4.59-0.51-5.4
		c0-1.77-0.36-3.84-3.84-3.84h-7.05V170.54z M1235.888,158.81h6.75c2.13,0,4.38-0.54,4.38-3.72c0-3.33-2.431-3.6-3.87-3.6h-7.26
		V158.81z"/>
	<path fill="#FFFFFF" d="M15.27,191.3c-0.15-3.33-2.91-4.38-5.34-4.38c-1.83,0-4.92,0.51-4.92,3.78c0,1.83,1.29,2.43,2.55,2.73
		l6.15,1.41c2.79,0.66,4.89,2.34,4.89,5.76c0,5.1-4.74,6.51-8.43,6.51c-3.99,0-5.55-1.199-6.51-2.07
		c-1.83-1.649-2.19-3.449-2.19-5.459H4.2c0,3.899,3.18,5.039,5.94,5.039c2.1,0,5.64-0.539,5.64-3.629c0-2.25-1.05-2.97-4.59-3.81
		l-4.41-1.02c-1.41-0.33-4.59-1.32-4.59-5.07c0-3.36,2.19-6.66,7.41-6.66c7.53,0,8.28,4.5,8.399,6.87H15.27z"/>
	<path fill="#FFFFFF" d="M31.649,206.539h-2.91V185h2.91V206.539z"/>
	<path fill="#FFFFFF" d="M40.77,185h17.489v2.58h-7.29v18.959h-2.91V187.58h-7.29V185z"/>
	<path fill="#FFFFFF" d="M76.139,206.539h-2.91v-8.669L65.099,185h3.39l6.18,10.35l6.18-10.35h3.42l-8.13,12.87V206.539z"/>
	<path fill="#939598" d="M110.698,206.539V193.82c0-0.63,0.06-3.36,0.06-5.37h-0.06l-6.06,18.089h-2.88l-6.06-18.059h-0.06
		c0,1.979,0.06,4.709,0.06,5.34v12.719h-2.82V185h4.17l6.149,18.208h0.06l6.12-18.208h4.14v21.539H110.698z"/>
	<path fill="#939598" d="M127.349,200.27l-2.25,6.269h-3l8.1-21.539h3.3l7.8,21.539h-3.18l-2.13-6.269H127.349z M134.938,197.69
		l-3.18-9.479h-0.06l-3.45,9.479H134.938z"/>
	<path fill="#939598" d="M152.878,203.959h10.919v2.58h-13.83V185h2.91V203.959z"/>
	<path fill="#939598" d="M176.039,200.27l-2.25,6.269h-3l8.1-21.539h3.3l7.8,21.539h-3.18l-2.13-6.269H176.039z M183.628,197.69
		l-3.18-9.479h-0.06l-3.45,9.479H183.628z"/>
	<path fill="#939598" d="M204.838,206.539h-2.91v-8.669l-8.13-12.87h3.39l6.18,10.35l6.18-10.35h3.42l-8.13,12.87V206.539z"/>
	<path fill="#939598" d="M221.759,200.27l-2.25,6.269h-3l8.1-21.539h3.3l7.8,21.539h-3.18l-2.13-6.269H221.759z M229.348,197.69
		l-3.18-9.479h-0.06l-3.45,9.479H229.348z"/>
	<path fill="#FFFFFF" d="M261.718,208.22l-3.3-2.55c-1.41,0.899-3.27,1.439-5.55,1.439c-8.04,0-10.5-6.689-10.5-11.339
		s2.46-11.339,10.5-11.339s10.5,6.689,10.5,11.339c0,2.73-0.84,6.12-3.12,8.429l2.94,2.28L261.718,208.22z M255.268,200.3l2.73,2.13
		c1.53-1.53,2.37-3.9,2.37-6.66c0-5.07-2.82-8.76-7.5-8.76s-7.5,3.69-7.5,8.76s2.82,8.759,7.5,8.759c1.2,0,2.28-0.24,3.18-0.689
		l-2.25-1.74L255.268,200.3z"/>
	<path fill="#FFFFFF" d="M285.808,191.3c-0.15-3.33-2.91-4.38-5.34-4.38c-1.83,0-4.92,0.51-4.92,3.78c0,1.83,1.29,2.43,2.55,2.73
		l6.15,1.41c2.79,0.66,4.89,2.34,4.89,5.76c0,5.1-4.74,6.51-8.43,6.51c-3.99,0-5.55-1.199-6.51-2.07
		c-1.83-1.649-2.19-3.449-2.19-5.459h2.73c0,3.899,3.18,5.039,5.94,5.039c2.1,0,5.64-0.539,5.64-3.629c0-2.25-1.05-2.97-4.59-3.81
		l-4.41-1.02c-1.41-0.33-4.59-1.32-4.59-5.07c0-3.36,2.19-6.66,7.41-6.66c7.53,0,8.28,4.5,8.4,6.87H285.808z"/>
	<path fill="#A7A9AC" d="M298.768,185h9.48c4.02,0,6.089,2.49,6.089,5.43c0,1.41-0.51,3.39-2.88,4.5c1.41,0.57,3.9,1.56,3.9,5.25
		c0,3.45-2.55,6.359-7.319,6.359h-9.27V185z M301.678,194.12h5.25c2.79,0,4.5-0.84,4.5-3.48c0-2.01-1.23-3.15-4.47-3.15h-5.28
		V194.12z M301.678,204.05h6.209c3.03,0,4.56-1.53,4.56-3.93c0-3.03-2.67-3.63-5.04-3.63h-5.729V204.05z"/>
	<path fill="#A7A9AC" d="M341.037,206.539h-15.899V185h15.689v2.58h-12.779v6.6h11.79v2.58h-11.79v7.199h12.989V206.539z"/>
	<path fill="#A7A9AC" d="M354.118,206.539h-2.91V185h9.959c3.54,0,7.08,1.23,7.08,5.79c0,3.18-1.62,4.35-3,5.16
		c1.23,0.51,2.46,1.05,2.58,4.05l0.18,3.899c0.03,1.2,0.18,1.65,1.08,2.16v0.479h-3.57c-0.42-1.319-0.51-4.59-0.51-5.399
		c0-1.77-0.36-3.84-3.84-3.84h-7.05V206.539z M354.118,194.81h6.75c2.13,0,4.38-0.54,4.38-3.72c0-3.33-2.43-3.6-3.87-3.6h-7.26
		V194.81z"/>
	<path fill="#A7A9AC" d="M391.497,191.3c-0.15-3.33-2.91-4.38-5.34-4.38c-1.83,0-4.92,0.51-4.92,3.78c0,1.83,1.29,2.43,2.55,2.73
		l6.15,1.41c2.79,0.66,4.89,2.34,4.89,5.76c0,5.1-4.74,6.51-8.43,6.51c-3.99,0-5.55-1.199-6.51-2.07
		c-1.83-1.649-2.19-3.449-2.19-5.459h2.73c0,3.899,3.18,5.039,5.94,5.039c2.1,0,5.64-0.539,5.64-3.629c0-2.25-1.05-2.97-4.59-3.81
		l-4.41-1.02c-1.41-0.33-4.59-1.32-4.59-5.07c0-3.36,2.19-6.66,7.41-6.66c7.53,0,8.28,4.5,8.399,6.87H391.497z"/>
	<path fill="#A7A9AC" d="M407.877,206.539h-2.91V185h2.91V206.539z"/>
	<path fill="#A7A9AC" d="M433.046,185h2.91v21.539h-2.91V196.49h-11.25v10.049h-2.91V185h2.91v8.91h11.25V185z"/>
	<path fill="#FFFFFF" d="M462.716,206.539h-15.899V185h15.689v2.58h-12.779v6.6h11.79v2.58h-11.79v7.199h12.989V206.539z"/>
	<path fill="#FFFFFF" d="M472.676,185h8.73c5.61,0,9.06,4.26,9.06,10.47c0,4.83-2.1,11.069-9.18,11.069h-8.61V185z M475.586,204.05
		h5.64c3.78,0,6.24-2.97,6.24-8.4c0-5.43-2.49-8.16-6.45-8.16h-5.43V204.05z"/>
	<path fill="#FFFFFF" d="M517.226,185v13.979c0,4.41-2.76,8.129-8.67,8.129c-5.79,0-8.279-3.72-8.279-7.74V185h2.91v13.56
		c0,4.68,2.85,5.969,5.46,5.969c2.67,0,5.669-1.229,5.669-5.909V185H517.226z"/>
	<path fill="#FFFFFF" d="M542.965,191.48c-0.81-3.78-3.96-4.47-6.03-4.47c-3.9,0-7.05,2.88-7.05,8.55c0,5.07,1.8,8.969,7.14,8.969
		c1.89,0,5.16-0.899,6.15-5.909h2.82c-1.2,8.13-7.8,8.489-9.419,8.489c-4.89,0-9.69-3.18-9.69-11.459
		c0-6.629,3.78-11.219,10.05-11.219c5.55,0,8.43,3.45,8.85,7.049H542.965z"/>
	<path fill="#FFFFFF" d="M558.896,200.27l-2.25,6.269h-3l8.1-21.539h3.3l7.8,21.539h-3.18l-2.13-6.269H558.896z M566.485,197.69
		l-3.18-9.479h-0.06l-3.45,9.479H566.485z"/>
	<path fill="#FFFFFF" d="M576.055,185h17.489v2.58h-7.29v18.959h-2.91V187.58h-7.29V185z"/>
	<path fill="#FFFFFF" d="M605.604,206.539h-2.91V185h2.91V206.539z"/>
	<path fill="#FFFFFF" d="M625.974,207.109c-8.04,0-10.5-6.689-10.5-11.339s2.46-11.339,10.5-11.339s10.5,6.689,10.5,11.339
		S634.014,207.109,625.974,207.109z M625.974,187.01c-4.68,0-7.5,3.69-7.5,8.76s2.82,8.759,7.5,8.759c4.68,0,7.5-3.689,7.5-8.759
		S630.654,187.01,625.974,187.01z"/>
	<path fill="#FFFFFF" d="M660.204,185h2.819v21.539h-3.27l-10.949-17.399h-0.061v17.399h-2.82V185h3.451l10.77,17.4h0.06V185z"/>
	<path fill="#A7A9AC" d="M676.794,206.539h-2.909V185h9.689c3.989,0,6.389,2.58,6.389,6.06c0,3-1.709,6.39-6.389,6.39h-6.78V206.539
		z M676.794,194.96h5.79c2.609,0,4.379-0.96,4.379-3.87c0-2.73-1.859-3.6-4.26-3.6h-5.909V194.96z"/>
	<path fill="#A7A9AC" d="M702.804,206.539h-2.909V185h9.689c3.989,0,6.389,2.58,6.389,6.06c0,3-1.709,6.39-6.389,6.39h-6.78V206.539
		z M702.804,194.96h5.79c2.609,0,4.379-0.96,4.379-3.87c0-2.73-1.859-3.6-4.26-3.6h-5.909V194.96z"/>
	<path fill="#A7A9AC" d="M738.593,191.3c-0.149-3.33-2.909-4.38-5.34-4.38c-1.829,0-4.919,0.51-4.919,3.78
		c0,1.83,1.289,2.43,2.55,2.73l6.149,1.41c2.79,0.66,4.89,2.34,4.89,5.76c0,5.1-4.739,6.51-8.43,6.51c-3.989,0-5.55-1.199-6.51-2.07
		c-1.83-1.649-2.189-3.449-2.189-5.459h2.729c0,3.899,3.18,5.039,5.939,5.039c2.101,0,5.641-0.539,5.641-3.629
		c0-2.25-1.051-2.97-4.59-3.81l-4.41-1.02c-1.41-0.33-4.59-1.32-4.59-5.07c0-3.36,2.189-6.66,7.41-6.66
		c7.529,0,8.279,4.5,8.399,6.87H738.593z"/>
	<path fill="#A7A9AC" d="M769.343,206.539V193.82c0-0.63,0.061-3.36,0.061-5.37h-0.061l-6.06,18.089h-2.88l-6.06-18.059h-0.06
		c0,1.979,0.06,4.709,0.06,5.34v12.719h-2.82V185h4.17l6.15,18.208h0.06l6.12-18.208h4.14v21.539H769.343z"/>
	<path fill="#A7A9AC" d="M785.963,206.539h-2.91V185h2.91V206.539z"/>
	<path fill="#FFFFFF" d="M814.672,206.539V193.82c0-0.63,0.061-3.36,0.061-5.37h-0.061l-6.06,18.089h-2.88l-6.06-18.059h-0.06
		c0,1.979,0.06,4.709,0.06,5.34v12.719h-2.82V185h4.17l6.15,18.208h0.06l6.12-18.208h4.14v21.539H814.672z"/>
	<path fill="#FFFFFF" d="M831.322,200.27l-2.25,6.269h-3l8.1-21.539h3.3l7.8,21.539h-3.18l-2.13-6.269H831.322z M838.912,197.69
		l-3.18-9.479h-0.061l-3.45,9.479H838.912z"/>
	<path fill="#FFFFFF" d="M856.852,203.959h10.92v2.58h-13.829V185h2.909V203.959z"/>
	<path fill="#FFFFFF" d="M880.013,200.27l-2.25,6.269h-3l8.1-21.539h3.3l7.8,21.539h-3.18l-2.13-6.269H880.013z M887.603,197.69
		l-3.181-9.479h-0.06l-3.45,9.479H887.603z"/>
	<path fill="#FFFFFF" d="M908.813,206.539h-2.91v-8.669l-8.13-12.87h3.39l6.18,10.35l6.18-10.35h3.42l-8.129,12.87V206.539z"/>
	<path fill="#FFFFFF" d="M928.854,206.539h-2.91V185h14.909v2.58h-11.999v6.6h10.56v2.58h-10.56V206.539z"/>
	<path fill="#FFFFFF" d="M953.332,206.539h-2.91V185h2.91V206.539z"/>
	<path fill="#FFFFFF" d="M967.582,206.539h-2.91V185h9.96c3.54,0,7.079,1.23,7.079,5.79c0,3.18-1.619,4.35-2.999,5.16
		c1.229,0.51,2.46,1.05,2.579,4.05l0.181,3.899c0.029,1.2,0.18,1.65,1.08,2.16v0.479h-3.57c-0.42-1.319-0.51-4.59-0.51-5.399
		c0-1.77-0.36-3.84-3.84-3.84h-7.05V206.539z M967.582,194.81h6.75c2.13,0,4.38-0.54,4.38-3.72c0-3.33-2.431-3.6-3.87-3.6h-7.26
		V194.81z"/>
	<path fill="#FFFFFF" d="M1004.961,191.3c-0.15-3.33-2.91-4.38-5.34-4.38c-1.83,0-4.92,0.51-4.92,3.78c0,1.83,1.29,2.43,2.55,2.73
		l6.149,1.41c2.79,0.66,4.891,2.34,4.891,5.76c0,5.1-4.74,6.51-8.43,6.51c-3.99,0-5.55-1.199-6.51-2.07
		c-1.83-1.649-2.19-3.449-2.19-5.459h2.73c0,3.899,3.18,5.039,5.939,5.039c2.1,0,5.64-0.539,5.64-3.629c0-2.25-1.05-2.97-4.59-3.81
		l-4.41-1.02c-1.409-0.33-4.59-1.32-4.59-5.07c0-3.36,2.19-6.66,7.41-6.66c7.529,0,8.279,4.5,8.399,6.87H1004.961z"/>
	<path fill="#FFFFFF" d="M1016.121,185h17.489v2.58h-7.29v18.959h-2.909V187.58h-7.29V185z"/>
	<path fill="#A7A9AC" d="M1045.581,206.539h-2.91V185h9.96c3.54,0,7.08,1.23,7.08,5.79c0,3.18-1.62,4.35-3,5.16
		c1.229,0.51,2.46,1.05,2.579,4.05l0.181,3.899c0.029,1.2,0.18,1.65,1.08,2.16v0.479h-3.57c-0.42-1.319-0.51-4.59-0.51-5.399
		c0-1.77-0.36-3.84-3.84-3.84h-7.05V206.539z M1045.581,194.81h6.75c2.13,0,4.38-0.54,4.38-3.72c0-3.33-2.431-3.6-3.87-3.6h-7.26
		V194.81z"/>
	<path fill="#A7A9AC" d="M1078.761,207.109c-8.04,0-10.5-6.689-10.5-11.339s2.46-11.339,10.5-11.339
		c8.039,0,10.499,6.689,10.499,11.339S1086.8,207.109,1078.761,207.109z M1078.761,187.01c-4.681,0-7.5,3.69-7.5,8.76
		s2.819,8.759,7.5,8.759c4.68,0,7.499-3.689,7.499-8.759S1083.44,187.01,1078.761,187.01z"/>
	<path fill="#A7A9AC" d="M1108.101,195.02h9.449v11.519h-1.89l-0.69-2.789c-1.47,2.039-4.17,3.359-7.109,3.359
		c-3.69,0-5.49-1.35-6.6-2.43c-3.3-3.12-3.39-6.81-3.39-9.09c0-5.25,3.18-11.159,10.199-11.159c4.02,0,8.489,2.28,9.119,7.109
		h-2.819c-0.93-3.75-4.08-4.53-6.45-4.53c-3.869,0-7.05,3.09-7.05,8.73c0,4.379,1.44,8.879,7.17,8.879c1.08,0,2.82-0.119,4.41-1.379
		c1.89-1.5,2.37-3.42,2.37-5.73h-6.72V195.02z"/>
	<path fill="#A7A9AC" d="M1137.44,207.109c-8.04,0-10.5-6.689-10.5-11.339s2.46-11.339,10.5-11.339
		c8.039,0,10.499,6.689,10.499,11.339S1145.479,207.109,1137.44,207.109z M1137.44,187.01c-4.681,0-7.5,3.69-7.5,8.76
		s2.819,8.759,7.5,8.759c4.68,0,7.499-3.689,7.499-8.759S1142.12,187.01,1137.44,187.01z"/>
	<path fill="#A7A9AC" d="M1160.3,203.959h10.92v2.58h-13.829V185h2.909V203.959z"/>
	<path fill="#808285" d="M1180.01,185h9.479c4.021,0,6.09,2.49,6.09,5.43c0,1.41-0.51,3.39-2.88,4.5c1.41,0.57,3.9,1.56,3.9,5.25
		c0,3.45-2.55,6.359-7.32,6.359h-9.27V185z M1182.92,194.12h5.25c2.79,0,4.5-0.84,4.5-3.48c0-2.01-1.23-3.15-4.471-3.15h-5.279
		V194.12z M1182.92,204.05h6.21c3.029,0,4.56-1.53,4.56-3.93c0-3.03-2.67-3.63-5.04-3.63h-5.729V204.05z"/>
	<path fill="#808285" d="M1222.279,206.539h-15.899V185h15.689v2.58h-12.779v6.6h11.789v2.58h-11.789v7.199h12.989V206.539z"/>
	<path fill="#808285" d="M1235.359,206.539h-2.91V185h9.96c3.54,0,7.079,1.23,7.079,5.79c0,3.18-1.619,4.35-2.999,5.16
		c1.229,0.51,2.46,1.05,2.579,4.05l0.181,3.899c0.029,1.2,0.18,1.65,1.08,2.16v0.479h-3.57c-0.42-1.319-0.51-4.59-0.51-5.399
		c0-1.77-0.36-3.84-3.84-3.84h-7.05V206.539z M1235.359,194.81h6.75c2.13,0,4.38-0.54,4.38-3.72c0-3.33-2.431-3.6-3.87-3.6h-7.26
		V194.81z"/>
	<path fill="#808285" d="M19.319,221v13.98c0,4.409-2.76,8.129-8.67,8.129c-5.79,0-8.279-3.72-8.279-7.74V221h2.91v13.561
		c0,4.68,2.85,5.969,5.46,5.969c2.67,0,5.669-1.229,5.669-5.909V221H19.319z"/>
	<path fill="#808285" d="M33.068,242.539h-2.91V221h2.91v10.439L43.508,221h4.02l-8.97,8.7l9.209,12.839h-3.78l-7.53-10.799
		l-3.39,3.24V242.539z"/>
	<path fill="#D1D3D4" d="M59.657,242.539h-2.91V221h9.959c3.54,0,7.08,1.23,7.08,5.79c0,3.181-1.62,4.351-3,5.16
		c1.23,0.51,2.46,1.05,2.58,4.05l0.18,3.899c0.03,1.2,0.18,1.65,1.08,2.16v0.479h-3.57c-0.42-1.319-0.51-4.59-0.51-5.399
		c0-1.771-0.36-3.84-3.84-3.84h-7.05V242.539z M59.657,230.811h6.75c2.13,0,4.38-0.541,4.38-3.721c0-3.33-2.43-3.6-3.87-3.6h-7.26
		V230.811z"/>
	<path fill="#D1D3D4" d="M87.655,236.27l-2.25,6.27h-3l8.1-21.539h3.3l7.8,21.539h-3.18l-2.13-6.27H87.655z M95.245,233.689
		l-3.18-9.479h-0.06l-3.45,9.479H95.245z"/>
	<path fill="#D1D3D4" d="M124.713,227.48c-0.81-3.78-3.96-4.471-6.03-4.471c-3.9,0-7.05,2.881-7.05,8.551
		c0,5.069,1.8,8.969,7.14,8.969c1.89,0,5.16-0.899,6.15-5.909h2.82c-1.2,8.13-7.8,8.489-9.419,8.489c-4.89,0-9.69-3.18-9.69-11.459
		c0-6.63,3.78-11.22,10.05-11.22c5.55,0,8.43,3.45,8.85,7.05H124.713z"/>
	<path fill="#D1D3D4" d="M140.832,242.539h-2.91V221h2.91V242.539z"/>
	<path fill="#D1D3D4" d="M165.021,227.301c-0.15-3.33-2.91-4.381-5.34-4.381c-1.83,0-4.92,0.51-4.92,3.78
		c0,1.83,1.29,2.43,2.55,2.729l6.15,1.41c2.79,0.66,4.89,2.34,4.89,5.76c0,5.1-4.74,6.51-8.43,6.51c-3.99,0-5.55-1.199-6.51-2.07
		c-1.83-1.649-2.19-3.449-2.19-5.459h2.73c0,3.899,3.18,5.039,5.94,5.039c2.1,0,5.64-0.539,5.64-3.629c0-2.25-1.05-2.971-4.59-3.811
		l-4.41-1.02c-1.41-0.33-4.59-1.32-4.59-5.07c0-3.359,2.19-6.659,7.41-6.659c7.53,0,8.28,4.499,8.399,6.87H165.021z"/>
	<path fill="#D1D3D4" d="M176.399,221h17.489v2.58h-7.29v18.959h-2.91V223.58h-7.29V221z"/>
	<path fill="#808285" d="M212.197,231.02h9.45v11.52h-1.89l-0.69-2.789c-1.47,2.039-4.169,3.359-7.109,3.359
		c-3.69,0-5.49-1.35-6.6-2.43c-3.3-3.12-3.39-6.81-3.39-9.09c0-5.25,3.18-11.159,10.2-11.159c4.02,0,8.49,2.28,9.12,7.109h-2.82
		c-0.93-3.749-4.08-4.53-6.45-4.53c-3.87,0-7.05,3.09-7.05,8.73c0,4.379,1.44,8.879,7.169,8.879c1.08,0,2.82-0.119,4.41-1.379
		c1.89-1.5,2.37-3.42,2.37-5.73h-6.72V231.02z"/>
	<path fill="#808285" d="M235.636,242.539h-2.91V221h9.959c3.54,0,7.08,1.23,7.08,5.79c0,3.181-1.62,4.351-3,5.16
		c1.23,0.51,2.46,1.05,2.58,4.05l0.18,3.899c0.03,1.2,0.18,1.65,1.08,2.16v0.479h-3.57c-0.42-1.319-0.51-4.59-0.51-5.399
		c0-1.771-0.36-3.84-3.84-3.84h-7.05V242.539z M235.636,230.811h6.75c2.13,0,4.38-0.541,4.38-3.721c0-3.33-2.43-3.6-3.87-3.6h-7.26
		V230.811z"/>
	<path fill="#808285" d="M263.635,236.27l-2.25,6.27h-3l8.1-21.539h3.3l7.8,21.539h-3.18l-2.13-6.27H263.635z M271.224,233.689
		l-3.18-9.479h-0.06l-3.45,9.479H271.224z"/>
	<path fill="#808285" d="M300.753,221h2.82v21.539h-3.27l-10.95-17.398h-0.06v17.398h-2.82V221h3.45l10.77,17.4h0.06V221z"/>
	<path fill="#808285" d="M314.501,221h8.73c5.61,0,9.06,4.26,9.06,10.471c0,4.829-2.1,11.068-9.18,11.068h-8.61V221z
		 M317.412,240.05h5.64c3.78,0,6.24-2.97,6.24-8.399s-2.49-8.16-6.45-8.16h-5.43V240.05z"/>
	<path fill="#808285" d="M359.959,242.539V229.82c0-0.631,0.06-3.36,0.06-5.37h-0.06l-6.06,18.089h-2.88l-6.06-18.059h-0.06
		c0,1.979,0.06,4.709,0.06,5.34v12.719h-2.82V221h4.17l6.149,18.209h0.06L358.64,221h4.14v21.539H359.959z"/>
	<path fill="#808285" d="M382.828,243.109c-8.04,0-10.5-6.689-10.5-11.34c0-4.649,2.46-11.339,10.5-11.339s10.5,6.689,10.5,11.339
		C393.328,236.42,390.868,243.109,382.828,243.109z M382.828,223.01c-4.68,0-7.5,3.69-7.5,8.76c0,5.07,2.82,8.76,7.5,8.76
		s7.5-3.689,7.5-8.76C390.328,226.7,387.508,223.01,382.828,223.01z"/>
	<path fill="#808285" d="M399.938,221h17.489v2.58h-7.29v18.959h-2.91V223.58h-7.29V221z"/>
	<path fill="#808285" d="M440.535,221h2.91v21.539h-2.91V232.49h-11.25v10.049h-2.91V221h2.91v8.91h11.25V221z"/>
	<path fill="#808285" d="M470.424,242.539h-15.899V221h15.689v2.58h-12.779v6.6h11.79v2.58h-11.79v7.199h12.99V242.539z"/>
	<path fill="#808285" d="M483.723,242.539h-2.91V221h9.96c3.54,0,7.08,1.23,7.08,5.79c0,3.181-1.62,4.351-3,5.16
		c1.23,0.51,2.46,1.05,2.58,4.05l0.18,3.899c0.03,1.2,0.18,1.65,1.08,2.16v0.479h-3.57c-0.42-1.319-0.51-4.59-0.51-5.399
		c0-1.771-0.36-3.84-3.84-3.84h-7.05V242.539z M483.723,230.811h6.75c2.13,0,4.38-0.541,4.38-3.721c0-3.33-2.43-3.6-3.87-3.6h-7.26
		V230.811z"/>
	<path fill="#FFFFFF" d="M521.321,227.301c-0.15-3.33-2.91-4.381-5.34-4.381c-1.83,0-4.92,0.51-4.92,3.78
		c0,1.83,1.29,2.43,2.55,2.729l6.15,1.41c2.79,0.66,4.89,2.34,4.89,5.76c0,5.1-4.74,6.51-8.43,6.51c-3.99,0-5.55-1.199-6.51-2.07
		c-1.83-1.649-2.19-3.449-2.19-5.459h2.73c0,3.899,3.18,5.039,5.94,5.039c2.1,0,5.64-0.539,5.64-3.629c0-2.25-1.05-2.971-4.59-3.811
		l-4.41-1.02c-1.41-0.33-4.59-1.32-4.59-5.07c0-3.359,2.19-6.659,7.41-6.659c7.53,0,8.28,4.499,8.399,6.87H521.321z"/>
	<path fill="#FFFFFF" d="M551.6,221v13.98c0,4.409-2.76,8.129-8.67,8.129c-5.79,0-8.279-3.72-8.279-7.74V221h2.91v13.561
		c0,4.68,2.85,5.969,5.46,5.969c2.67,0,5.669-1.229,5.669-5.909V221H551.6z"/>
	<path fill="#FFFFFF" d="M562.378,221h9.48c4.02,0,6.089,2.49,6.089,5.43c0,1.41-0.51,3.391-2.88,4.5c1.41,0.57,3.9,1.561,3.9,5.25
		c0,3.45-2.55,6.359-7.319,6.359h-9.27V221z M565.289,230.12h5.25c2.79,0,4.5-0.84,4.5-3.479c0-2.01-1.23-3.15-4.47-3.15h-5.28
		V230.12z M565.289,240.05h6.209c3.03,0,4.56-1.53,4.56-3.931c0-3.029-2.67-3.629-5.04-3.629h-5.729V240.05z"/>
	<path fill="#FFFFFF" d="M606.396,242.539V229.82c0-0.631,0.06-3.36,0.06-5.37h-0.06l-6.06,18.089h-2.88l-6.06-18.059h-0.06
		c0,1.979,0.06,4.709,0.06,5.34v12.719h-2.82V221h4.17l6.149,18.209h0.06l6.12-18.209h4.14v21.539H606.396z"/>
	<path fill="#FFFFFF" d="M623.266,236.27l-2.25,6.27h-3l8.1-21.539h3.3l7.8,21.539h-3.18l-2.13-6.27H623.266z M630.855,233.689
		l-3.18-9.479h-0.061l-3.45,9.479H630.855z"/>
	<path fill="#FFFFFF" d="M649.374,242.539h-2.91V221h9.96c3.539,0,7.08,1.23,7.08,5.79c0,3.181-1.621,4.351-3,5.16
		c1.229,0.51,2.459,1.05,2.58,4.05l0.18,3.899c0.029,1.2,0.18,1.65,1.08,2.16v0.479h-3.57c-0.42-1.319-0.51-4.59-0.51-5.399
		c0-1.771-0.36-3.84-3.84-3.84h-7.05V242.539z M649.374,230.811h6.749c2.131,0,4.381-0.541,4.381-3.721c0-3.33-2.43-3.6-3.87-3.6
		h-7.26V230.811z"/>
	<path fill="#FFFFFF" d="M677.342,242.539h-2.909V221h2.909V242.539z"/>
	<path fill="#FFFFFF" d="M702.82,221h2.82v21.539h-3.27l-10.95-17.398h-0.06v17.398h-2.82V221h3.45l10.77,17.4h0.06V221z"/>
	<path fill="#FFFFFF" d="M732.619,242.539H716.72V221h15.689v2.58h-12.78v6.6h11.79v2.58h-11.79v7.199h12.99V242.539z"/>
	<path fill="#6D6E71" d="M745.858,242.539h-2.91V221h9.689c3.99,0,6.39,2.58,6.39,6.061c0,3-1.71,6.389-6.39,6.389h-6.779V242.539z
		 M745.858,230.96h5.789c2.61,0,4.38-0.96,4.38-3.87c0-2.729-1.859-3.6-4.26-3.6h-5.909V230.96z"/>
	<path fill="#6D6E71" d="M785.076,242.539h-15.899V221h15.689v2.58h-12.779v6.6h11.789v2.58h-11.789v7.199h12.989V242.539z"/>
	<path fill="#6D6E71" d="M798.375,242.539h-2.91V221h9.96c3.54,0,7.079,1.23,7.079,5.79c0,3.181-1.619,4.351-2.999,5.16
		c1.229,0.51,2.46,1.05,2.579,4.05l0.181,3.899c0.029,1.2,0.18,1.65,1.08,2.16v0.479h-3.57c-0.42-1.319-0.51-4.59-0.51-5.399
		c0-1.771-0.36-3.84-3.84-3.84h-7.05V242.539z M798.375,230.811h6.75c2.13,0,4.38-0.541,4.38-3.721c0-3.33-2.431-3.6-3.87-3.6h-7.26
		V230.811z"/>
	<path fill="#6D6E71" d="M825.893,242.539h-2.909V221h2.909v10.439L836.332,221h4.021l-8.97,8.7l9.21,12.839h-3.78l-7.529-10.799
		l-3.391,3.24V242.539z"/>
	<path fill="#6D6E71" d="M852.602,236.27l-2.25,6.27h-3l8.1-21.539h3.3l7.8,21.539h-3.18l-2.13-6.27H852.602z M860.191,233.689
		l-3.18-9.479h-0.061l-3.45,9.479H860.191z"/>
	<path fill="#6D6E71" d="M888.43,227.301c-0.15-3.33-2.91-4.381-5.34-4.381c-1.83,0-4.92,0.51-4.92,3.78
		c0,1.83,1.29,2.43,2.55,2.729l6.149,1.41c2.79,0.66,4.891,2.34,4.891,5.76c0,5.1-4.74,6.51-8.43,6.51c-3.99,0-5.55-1.199-6.51-2.07
		c-1.83-1.649-2.19-3.449-2.19-5.459h2.73c0,3.899,3.18,5.039,5.939,5.039c2.1,0,5.64-0.539,5.64-3.629
		c0-2.25-1.05-2.971-4.59-3.811l-4.41-1.02c-1.409-0.33-4.59-1.32-4.59-5.07c0-3.359,2.19-6.659,7.41-6.659
		c7.529,0,8.279,4.499,8.399,6.87H888.43z"/>
	<path fill="#6D6E71" d="M905.059,236.27l-2.25,6.27h-3l8.1-21.539h3.3l7.8,21.539h-3.18l-2.13-6.27H905.059z M912.648,233.689
		l-3.18-9.479h-0.061l-3.45,9.479H912.648z"/>
	<path fill="#6D6E71" d="M944.097,242.539h-15.899V221h15.689v2.58h-12.779v6.6h11.789v2.58h-11.789v7.199h12.989V242.539z"/>
	<path fill="#6D6E71" d="M968.406,221h2.819v21.539h-3.27l-10.949-17.398h-0.061v17.398h-2.819V221h3.449l10.77,17.4h0.061V221z"/>
	<path fill="#6D6E71" d="M982.154,221h8.729c5.61,0,9.06,4.26,9.06,10.471c0,4.829-2.1,11.068-9.18,11.068h-8.609V221z
		 M985.064,240.05h5.64c3.78,0,6.24-2.97,6.24-8.399s-2.49-8.16-6.45-8.16h-5.43V240.05z"/>
	<path fill="#6D6E71" d="M1012.792,239.959h10.92v2.58h-13.829V221h2.909V239.959z"/>
	<path fill="#6D6E71" d="M1048.98,242.539h-15.899V221h15.689v2.58h-12.779v6.6h11.789v2.58h-11.789v7.199h12.989V242.539z"/>
	<path fill="#6D6E71" d="M1071.999,227.301c-0.15-3.33-2.91-4.381-5.34-4.381c-1.83,0-4.92,0.51-4.92,3.78
		c0,1.83,1.29,2.43,2.55,2.729l6.149,1.41c2.79,0.66,4.891,2.34,4.891,5.76c0,5.1-4.74,6.51-8.43,6.51c-3.99,0-5.55-1.199-6.51-2.07
		c-1.83-1.649-2.19-3.449-2.19-5.459h2.73c0,3.899,3.18,5.039,5.939,5.039c2.1,0,5.64-0.539,5.64-3.629
		c0-2.25-1.05-2.971-4.59-3.811l-4.41-1.02c-1.409-0.33-4.59-1.32-4.59-5.07c0-3.359,2.19-6.659,7.41-6.659
		c7.529,0,8.279,4.499,8.399,6.87H1071.999z"/>
	<path fill="#6D6E71" d="M1098.228,227.301c-0.15-3.33-2.91-4.381-5.34-4.381c-1.83,0-4.92,0.51-4.92,3.78
		c0,1.83,1.29,2.43,2.55,2.729l6.149,1.41c2.79,0.66,4.891,2.34,4.891,5.76c0,5.1-4.74,6.51-8.43,6.51c-3.99,0-5.55-1.199-6.51-2.07
		c-1.83-1.649-2.19-3.449-2.19-5.459h2.73c0,3.899,3.18,5.039,5.939,5.039c2.1,0,5.64-0.539,5.64-3.629
		c0-2.25-1.05-2.971-4.59-3.811l-4.41-1.02c-1.409-0.33-4.59-1.32-4.59-5.07c0-3.359,2.19-6.659,7.41-6.659
		c7.529,0,8.279,4.499,8.399,6.87H1098.228z"/>
	<path fill="#E6E7E8" d="M1114.677,242.539h-2.91V221h9.689c3.99,0,6.39,2.58,6.39,6.061c0,3-1.71,6.389-6.39,6.389h-6.779V242.539z
		 M1114.677,230.96h5.789c2.61,0,4.38-0.96,4.38-3.87c0-2.729-1.859-3.6-4.26-3.6h-5.909V230.96z"/>
	<path fill="#E6E7E8" d="M1147.085,243.109c-8.04,0-10.5-6.689-10.5-11.34c0-4.649,2.46-11.339,10.5-11.339
		c8.039,0,10.499,6.689,10.499,11.339C1157.584,236.42,1155.124,243.109,1147.085,243.109z M1147.085,223.01
		c-4.681,0-7.5,3.69-7.5,8.76c0,5.07,2.819,8.76,7.5,8.76c4.68,0,7.499-3.689,7.499-8.76
		C1154.584,226.7,1151.765,223.01,1147.085,223.01z"/>
	<path fill="#E6E7E8" d="M1180.243,227.301c-0.15-3.33-2.91-4.381-5.34-4.381c-1.83,0-4.92,0.51-4.92,3.78
		c0,1.83,1.29,2.43,2.55,2.729l6.149,1.41c2.79,0.66,4.891,2.34,4.891,5.76c0,5.1-4.74,6.51-8.43,6.51c-3.99,0-5.55-1.199-6.51-2.07
		c-1.83-1.649-2.19-3.449-2.19-5.459h2.73c0,3.899,3.18,5.039,5.939,5.039c2.1,0,5.64-0.539,5.64-3.629
		c0-2.25-1.05-2.971-4.59-3.811l-4.41-1.02c-1.409-0.33-4.59-1.32-4.59-5.07c0-3.359,2.19-6.659,7.41-6.659
		c7.529,0,8.279,4.499,8.399,6.87H1180.243z"/>
	<path fill="#E6E7E8" d="M1206.472,227.301c-0.15-3.33-2.91-4.381-5.34-4.381c-1.83,0-4.92,0.51-4.92,3.78
		c0,1.83,1.29,2.43,2.55,2.729l6.149,1.41c2.79,0.66,4.891,2.34,4.891,5.76c0,5.1-4.74,6.51-8.43,6.51c-3.99,0-5.55-1.199-6.51-2.07
		c-1.83-1.649-2.19-3.449-2.19-5.459h2.73c0,3.899,3.18,5.039,5.939,5.039c2.1,0,5.64-0.539,5.64-3.629
		c0-2.25-1.05-2.971-4.59-3.811l-4.41-1.02c-1.409-0.33-4.59-1.32-4.59-5.07c0-3.359,2.19-6.659,7.41-6.659
		c7.529,0,8.279,4.499,8.399,6.87H1206.472z"/>
	<path fill="#E6E7E8" d="M1223.07,242.539h-2.91V221h2.91V242.539z"/>
	<path fill="#E6E7E8" d="M1234.209,221h9.479c4.021,0,6.09,2.49,6.09,5.43c0,1.41-0.51,3.391-2.88,4.5c1.41,0.57,3.9,1.561,3.9,5.25
		c0,3.45-2.55,6.359-7.32,6.359h-9.27V221z M1237.119,230.12h5.25c2.79,0,4.5-0.84,4.5-3.479c0-2.01-1.23-3.15-4.471-3.15h-5.279
		V230.12z M1237.119,240.05h6.21c3.029,0,4.56-1.53,4.56-3.931c0-3.029-2.67-3.629-5.04-3.629h-5.729V240.05z"/>
	<path fill="#E6E7E8" d="M5.64,278.539H2.73V257h2.91V278.539z"/>
	<path fill="#E6E7E8" d="M19.869,275.959h10.919v2.58h-13.83V257h2.91V275.959z"/>
	<path fill="#E6E7E8" d="M43.338,278.539h-2.91V257h2.91V278.539z"/>
	<path fill="#E6E7E8" d="M52.798,257h17.489v2.58h-7.29v18.959h-2.91V259.58h-7.29V257z"/>
	<path fill="#E6E7E8" d="M82.687,278.539h-2.91V257h2.91V278.539z"/>
	<path fill="#E6E7E8" d="M110.205,278.539H94.306V257h15.689v2.58H97.216v6.6h11.79v2.58h-11.79v7.199h12.989V278.539z"/>
	<path fill="#E6E7E8" d="M133.345,263.301c-0.15-3.33-2.91-4.381-5.34-4.381c-1.83,0-4.92,0.51-4.92,3.78
		c0,1.83,1.29,2.43,2.55,2.729l6.15,1.41c2.79,0.66,4.89,2.34,4.89,5.76c0,5.1-4.74,6.51-8.43,6.51c-3.99,0-5.55-1.199-6.51-2.07
		c-1.83-1.649-2.19-3.449-2.19-5.459h2.73c0,3.899,3.18,5.039,5.94,5.039c2.1,0,5.64-0.539,5.64-3.629c0-2.25-1.05-2.971-4.59-3.811
		l-4.41-1.02c-1.41-0.33-4.59-1.32-4.59-5.07c0-3.359,2.19-6.659,7.41-6.659c7.53,0,8.28,4.499,8.399,6.87H133.345z"/>
	<path fill="#939598" d="M149.614,278.539h-2.91V257h2.91v10.439L160.054,257h4.02l-8.97,8.7l9.209,12.839h-3.78l-7.53-10.799
		l-3.39,3.24V278.539z"/>
	<path fill="#939598" d="M189.253,278.539h-15.899V257h15.689v2.58h-12.779v6.6h11.79v2.58h-11.79v7.199h12.99V278.539z"/>
	<path fill="#939598" d="M199.552,257h8.73c5.61,0,9.06,4.26,9.06,10.471c0,4.829-2.1,11.068-9.18,11.068h-8.61V257z
		 M202.462,276.05h5.64c3.78,0,6.24-2.97,6.24-8.399s-2.49-8.16-6.45-8.16h-5.43V276.05z"/>
	<path fill="#939598" d="M229.592,272.27l-2.25,6.27h-3l8.1-21.539h3.3l7.8,21.539h-3.18l-2.13-6.27H229.592z M237.181,269.689
		l-3.18-9.479h-0.06l-3.45,9.479H237.181z"/>
	<path fill="#939598" d="M255.911,278.539h-2.91V257h2.91V278.539z"/>
	<path fill="#E6E7E8" d="M270.5,278.539h-2.91V257h9.96c3.54,0,7.08,1.23,7.08,5.79c0,3.181-1.62,4.351-3,5.16
		c1.23,0.51,2.46,1.05,2.58,4.05l0.18,3.899c0.03,1.2,0.18,1.65,1.08,2.16v0.479h-3.57c-0.42-1.319-0.51-4.59-0.51-5.399
		c0-1.771-0.36-3.84-3.84-3.84h-7.05V278.539z M270.5,266.811h6.75c2.13,0,4.38-0.541,4.38-3.721c0-3.33-2.43-3.6-3.87-3.6h-7.26
		V266.811z"/>
	<path fill="#E6E7E8" d="M298.619,272.27l-2.25,6.27h-3l8.1-21.539h3.3l7.8,21.539h-3.18l-2.13-6.27H298.619z M306.208,269.689
		l-3.18-9.479h-0.06l-3.45,9.479H306.208z"/>
	<path fill="#E6E7E8" d="M324.489,278.539h-2.91V257h2.91v10.439L334.928,257h4.02l-8.97,8.7l9.209,12.839h-3.78l-7.53-10.799
		l-3.39,3.24V278.539z"/>
	<path fill="#E6E7E8" d="M357.107,278.539h-2.91v-8.669l-8.13-12.87h3.39l6.18,10.35l6.18-10.35h3.42l-8.13,12.87V278.539z"/>
	<path fill="#E6E7E8" d="M374.367,272.27l-2.25,6.27h-3l8.1-21.539h3.3l7.8,21.539h-3.18l-2.13-6.27H374.367z M381.957,269.689
		l-3.18-9.479h-0.06l-3.45,9.479H381.957z"/>
	<path fill="#E6E7E8" d="M391.867,257h17.489v2.58h-7.29v18.959h-2.91V259.58h-7.29V257z"/>
	<path fill="#D1D3D4" d="M426.885,278.539h-2.82V263.57h-4.92v-2.1c3.42-0.24,4.83-0.57,5.67-4.021h2.07V278.539z"/>
	<path fill="#D1D3D4" d="M459.145,278.539V265.82c0-0.631,0.06-3.36,0.06-5.37h-0.06l-6.06,18.089h-2.88l-6.06-18.059h-0.06
		c0,1.979,0.06,4.709,0.06,5.34v12.719h-2.82V257h4.17l6.149,18.209h0.06l6.12-18.209h4.14v21.539H459.145z"/>
	<path fill="#D1D3D4" d="M476.134,272.27l-2.25,6.27h-3l8.1-21.539h3.3l7.8,21.539h-3.18l-2.13-6.27H476.134z M483.724,269.689
		l-3.18-9.479h-0.06l-3.45,9.479H483.724z"/>
	<path fill="#D1D3D4" d="M502.003,275.959h10.919v2.58h-13.83V257h2.91V275.959z"/>
	<path fill="#D1D3D4" d="M525.503,272.27l-2.25,6.27h-3l8.1-21.539h3.3l7.8,21.539h-3.18l-2.13-6.27H525.503z M533.092,269.689
		l-3.18-9.479h-0.06l-3.45,9.479H533.092z"/>
	<path fill="#D1D3D4" d="M554.642,278.539h-2.91v-8.669l-8.13-12.87h3.39l6.18,10.35l6.18-10.35h3.42l-8.13,12.87V278.539z"/>
	<path fill="#D1D3D4" d="M584.801,263.301c-0.15-3.33-2.91-4.381-5.34-4.381c-1.83,0-4.92,0.51-4.92,3.78
		c0,1.83,1.29,2.43,2.55,2.729l6.15,1.41c2.79,0.66,4.89,2.34,4.89,5.76c0,5.1-4.74,6.51-8.43,6.51c-3.99,0-5.55-1.199-6.51-2.07
		c-1.83-1.649-2.19-3.449-2.19-5.459h2.73c0,3.899,3.18,5.039,5.94,5.039c2.1,0,5.64-0.539,5.64-3.629c0-2.25-1.05-2.971-4.59-3.811
		l-4.41-1.02c-1.41-0.33-4.59-1.32-4.59-5.07c0-3.359,2.19-6.659,7.41-6.659c7.53,0,8.28,4.499,8.399,6.87H584.801z"/>
	<path fill="#D1D3D4" d="M601.52,278.539h-2.91V257h2.91V278.539z"/>
	<path fill="#E6E7E8" d="M616.229,272.27l-2.25,6.27h-3l8.1-21.539h3.3l7.8,21.539h-3.18l-2.13-6.27H616.229z M623.819,269.689
		l-3.18-9.479h-0.06l-3.45,9.479H623.819z"/>
	<path fill="#A7A9AC" d="M642.398,278.539h-2.91V257h9.689c3.99,0,6.391,2.58,6.391,6.061c0,3-1.711,6.389-6.391,6.389h-6.779
		V278.539z M642.398,266.96h5.79c2.61,0,4.38-0.96,4.38-3.87c0-2.729-1.86-3.6-4.26-3.6h-5.91V266.96z"/>
	<path fill="#A7A9AC" d="M674.928,279.109c-8.04,0-10.5-6.689-10.5-11.34c0-4.649,2.46-11.339,10.5-11.339
		c8.039,0,10.499,6.689,10.499,11.339C685.427,272.42,682.967,279.109,674.928,279.109z M674.928,259.01c-4.68,0-7.5,3.69-7.5,8.76
		c0,5.07,2.82,8.76,7.5,8.76s7.5-3.689,7.5-8.76C682.428,262.7,679.607,259.01,674.928,259.01z"/>
	<path fill="#A7A9AC" d="M698.486,278.539h-2.909V257h9.96c3.539,0,7.079,1.23,7.079,5.79c0,3.181-1.62,4.351-3,5.16
		c1.229,0.51,2.46,1.05,2.58,4.05l0.18,3.899c0.03,1.2,0.181,1.65,1.08,2.16v0.479h-3.569c-0.42-1.319-0.51-4.59-0.51-5.399
		c0-1.771-0.36-3.84-3.84-3.84h-7.051V278.539z M698.486,266.811h6.75c2.13,0,4.38-0.541,4.38-3.721c0-3.33-2.43-3.6-3.87-3.6h-7.26
		V266.811z"/>
	<path fill="#A7A9AC" d="M737.495,257h2.82v21.539h-3.271l-10.949-17.398h-0.06v17.398h-2.82V257h3.45l10.77,17.4h0.06V257z"/>
	<path fill="#E6E7E8" d="M764.205,263.301c-0.15-3.33-2.91-4.381-5.34-4.381c-1.83,0-4.92,0.51-4.92,3.78
		c0,1.83,1.29,2.43,2.55,2.729l6.149,1.41c2.79,0.66,4.891,2.34,4.891,5.76c0,5.1-4.74,6.51-8.43,6.51c-3.99,0-5.55-1.199-6.51-2.07
		c-1.83-1.649-2.19-3.449-2.19-5.459h2.73c0,3.899,3.18,5.039,5.939,5.039c2.1,0,5.64-0.539,5.64-3.629
		c0-2.25-1.05-2.971-4.59-3.811l-4.41-1.02c-1.409-0.33-4.59-1.32-4.59-5.07c0-3.359,2.19-6.659,7.41-6.659
		c7.529,0,8.279,4.499,8.399,6.87H764.205z"/>
	<path fill="#E6E7E8" d="M775.704,257h17.489v2.58h-7.29v18.959h-2.909V259.58h-7.29V257z"/>
	<path fill="#E6E7E8" d="M802.023,272.27l-2.25,6.27h-3l8.1-21.539h3.3l7.8,21.539h-3.18l-2.13-6.27H802.023z M809.613,269.689
		l-3.18-9.479h-0.061l-3.45,9.479H809.613z"/>
	<path fill="#E6E7E8" d="M828.253,278.539h-2.91V257h9.96c3.54,0,7.08,1.23,7.08,5.79c0,3.181-1.62,4.351-3,5.16
		c1.229,0.51,2.46,1.05,2.579,4.05l0.181,3.899c0.029,1.2,0.18,1.65,1.08,2.16v0.479h-3.57c-0.42-1.319-0.51-4.59-0.51-5.399
		c0-1.771-0.36-3.84-3.84-3.84h-7.05V278.539z M828.253,266.811h6.75c2.13,0,4.38-0.541,4.38-3.721c0-3.33-2.431-3.6-3.87-3.6h-7.26
		V266.811z"/>
	<path fill="#939598" d="M855.892,278.539h-2.909V257h2.909v10.439L866.331,257h4.021l-8.97,8.7l9.21,12.839h-3.78l-7.529-10.799
		l-3.391,3.24V278.539z"/>
	<path fill="#939598" d="M893.521,257h2.909v21.539h-2.909V268.49h-11.25v10.049h-2.91V257h2.91v8.91h11.25V257z"/>
	<path fill="#939598" d="M910.72,272.27l-2.25,6.27h-3l8.1-21.539h3.3l7.8,21.539h-3.18l-2.13-6.27H910.72z M918.31,269.689
		l-3.181-9.479h-0.06l-3.45,9.479H918.31z"/>
	<path fill="#939598" d="M936.589,275.959h10.92v2.58H933.68V257h2.909V275.959z"/>
	<path fill="#939598" d="M961.469,278.539h-3.06L952.799,257h3.15l4.02,17.52h0.061l4.829-17.52h3.181l4.829,17.52h0.061l4.02-17.52
		h3.21l-5.67,21.539h-3.06l-4.92-17.849h-0.06L961.469,278.539z"/>
	<path fill="#939598" d="M991.148,272.27l-2.25,6.27h-3l8.1-21.539h3.3l7.8,21.539h-3.18l-2.13-6.27H991.148z M998.738,269.689
		l-3.18-9.479h-0.061l-3.45,9.479H998.738z"/>
	<path fill="#939598" d="M1008.646,257h17.489v2.58h-7.29v18.959h-2.909V259.58h-7.29V257z"/>
	<path fill="#FFFFFF" d="M1038.086,278.539h-2.909V257h2.909v10.439L1048.525,257h4.021l-8.97,8.7l9.21,12.839h-3.78l-7.529-10.799
		l-3.391,3.24V278.539z"/>
	<path fill="#FFFFFF" d="M1064.915,272.27l-2.25,6.27h-3l8.1-21.539h3.3l7.8,21.539h-3.18l-2.13-6.27H1064.915z M1072.505,269.689
		l-3.181-9.479h-0.06l-3.45,9.479H1072.505z"/>
	<path fill="#FFFFFF" d="M1090.784,275.959h10.92v2.58h-13.829V257h2.909V275.959z"/>
	<path fill="#FFFFFF" d="M1114.253,278.539h-2.91V257h2.91V278.539z"/>
	<path fill="#FFFFFF" d="M1143.302,278.539V265.82c0-0.631,0.061-3.36,0.061-5.37h-0.061l-6.06,18.089h-2.88l-6.06-18.059h-0.06
		c0,1.979,0.06,4.709,0.06,5.34v12.719h-2.82V257h4.17l6.15,18.209h0.06l6.12-18.209h4.14v21.539H1143.302z"/>
	<path fill="#FFFFFF" d="M1160.292,272.27l-2.25,6.27h-3l8.1-21.539h3.3l7.8,21.539h-3.18l-2.13-6.27H1160.292z M1167.882,269.689
		l-3.181-9.479h-0.06l-3.45,9.479H1167.882z"/>
	<path fill="#FFFFFF" d="M1197.441,257h2.909v21.539h-2.909V268.49h-11.25v10.049h-2.91V257h2.91v8.91h11.25V257z"/>
	<path fill="#939598" d="M1214.64,272.27l-2.25,6.27h-3l8.1-21.539h3.3l7.8,21.539h-3.18l-2.13-6.27H1214.64z M1222.229,269.689
		l-3.181-9.479h-0.06l-3.45,9.479H1222.229z"/>
	<path fill="#939598" d="M1240.509,275.959h10.92v2.58H1237.6V257h2.909V275.959z"/>
	<path fill="#939598" d="M5.19,311.959h10.919v2.58H2.28V293h2.91V311.959z"/>
	<path fill="#939598" d="M28.827,308.27l-2.25,6.27h-3l8.1-21.539h3.3l7.8,21.539h-3.18l-2.13-6.27H28.827z M36.416,305.689
		l-3.18-9.479h-0.06l-3.45,9.479H36.416z"/>
	<path fill="#939598" d="M66.113,293h2.91v21.539h-2.91V304.49h-11.25v10.049h-2.91V293h2.91v8.91h11.25V293z"/>
	<path fill="#FFFFFF" d="M80,293h9.48c4.02,0,6.089,2.49,6.089,5.43c0,1.41-0.51,3.391-2.88,4.5c1.41,0.57,3.9,1.561,3.9,5.25
		c0,3.45-2.55,6.359-7.319,6.359H80V293z M82.91,302.12h5.25c2.79,0,4.5-0.84,4.5-3.479c0-2.01-1.23-3.15-4.47-3.15h-5.28V302.12z
		 M82.91,312.05h6.209c3.03,0,4.56-1.53,4.56-3.931c0-3.029-2.67-3.629-5.04-3.629H82.91V312.05z"/>
	<path fill="#FFFFFF" d="M122.745,314.539h-15.899V293h15.689v2.58h-12.779v6.6h11.79v2.58h-11.79v7.199h12.989V314.539z"/>
	<path fill="#FFFFFF" d="M136.302,314.539h-2.91V293h9.959c3.54,0,7.08,1.23,7.08,5.79c0,3.181-1.62,4.351-3,5.16
		c1.23,0.51,2.46,1.05,2.58,4.05l0.18,3.899c0.03,1.2,0.18,1.65,1.08,2.16v0.479h-3.57c-0.42-1.319-0.51-4.59-0.51-5.399
		c0-1.771-0.36-3.84-3.84-3.84h-7.05V314.539z M136.302,302.811h6.75c2.13,0,4.38-0.541,4.38-3.721c0-3.33-2.43-3.6-3.87-3.6h-7.26
		V302.811z"/>
	<path fill="#FFFFFF" d="M174.158,299.301c-0.15-3.33-2.91-4.381-5.34-4.381c-1.83,0-4.92,0.51-4.92,3.78
		c0,1.83,1.29,2.43,2.55,2.729l6.15,1.41c2.79,0.66,4.89,2.34,4.89,5.76c0,5.1-4.74,6.51-8.43,6.51c-3.99,0-5.55-1.199-6.51-2.07
		c-1.83-1.649-2.19-3.449-2.19-5.459h2.73c0,3.899,3.18,5.039,5.94,5.039c2.1,0,5.64-0.539,5.64-3.629c0-2.25-1.05-2.971-4.59-3.811
		l-4.41-1.02c-1.41-0.33-4.59-1.32-4.59-5.07c0-3.359,2.19-6.659,7.41-6.659c7.53,0,8.28,4.499,8.399,6.87H174.158z"/>
	<path fill="#FFFFFF" d="M191.015,314.539h-2.91V293h2.91V314.539z"/>
	<path fill="#FFFFFF" d="M216.661,293h2.91v21.539h-2.91V304.49h-11.25v10.049h-2.91V293h2.91v8.91h11.25V293z"/>
	<path fill="#808285" d="M233.878,314.539h-2.91V293h9.96c3.54,0,7.08,1.23,7.08,5.79c0,3.181-1.62,4.351-3,5.16
		c1.23,0.51,2.46,1.05,2.58,4.05l0.18,3.899c0.03,1.2,0.18,1.65,1.08,2.16v0.479h-3.57c-0.42-1.319-0.51-4.59-0.51-5.399
		c0-1.771-0.36-3.84-3.84-3.84h-7.05V314.539z M233.878,302.811h6.75c2.13,0,4.38-0.541,4.38-3.721c0-3.33-2.43-3.6-3.87-3.6h-7.26
		V302.811z"/>
	<path fill="#808285" d="M262.135,308.27l-2.25,6.27h-3l8.1-21.539h3.3l7.8,21.539h-3.18l-2.13-6.27H262.135z M269.724,305.689
		l-3.18-9.479h-0.06l-3.45,9.479H269.724z"/>
	<path fill="#808285" d="M299.451,299.48c-0.81-3.78-3.96-4.471-6.03-4.471c-3.9,0-7.05,2.881-7.05,8.551
		c0,5.069,1.8,8.969,7.14,8.969c1.89,0,5.16-0.899,6.15-5.909h2.82c-1.2,8.13-7.8,8.489-9.419,8.489c-4.89,0-9.69-3.18-9.69-11.459
		c0-6.63,3.78-11.22,10.05-11.22c5.55,0,8.43,3.45,8.85,7.05H299.451z"/>
	<path fill="#808285" d="M315.827,314.539h-2.91V293h2.91V314.539z"/>
	<path fill="#808285" d="M340.273,299.301c-0.15-3.33-2.91-4.381-5.34-4.381c-1.83,0-4.92,0.51-4.92,3.78
		c0,1.83,1.29,2.43,2.55,2.729l6.15,1.41c2.79,0.66,4.89,2.34,4.89,5.76c0,5.1-4.74,6.51-8.43,6.51c-3.99,0-5.55-1.199-6.51-2.07
		c-1.83-1.649-2.19-3.449-2.19-5.459h2.73c0,3.899,3.18,5.039,5.94,5.039c2.1,0,5.64-0.539,5.64-3.629c0-2.25-1.05-2.971-4.59-3.811
		l-4.41-1.02c-1.41-0.33-4.59-1.32-4.59-5.07c0-3.359,2.19-6.659,7.41-6.659c7.53,0,8.28,4.499,8.399,6.87H340.273z"/>
	<path fill="#808285" d="M351.91,293h17.489v2.58h-7.29v18.959h-2.91V295.58h-7.29V293z"/>
	<path fill="#FFFFFF" d="M393.696,299.48c-0.81-3.78-3.96-4.471-6.03-4.471c-3.9,0-7.05,2.881-7.05,8.551
		c0,5.069,1.8,8.969,7.14,8.969c1.89,0,5.16-0.899,6.15-5.909h2.82c-1.2,8.13-7.8,8.489-9.419,8.489c-4.89,0-9.69-3.18-9.69-11.459
		c0-6.63,3.78-11.22,10.05-11.22c5.55,0,8.43,3.45,8.85,7.05H393.696z"/>
	<path fill="#FFFFFF" d="M410.073,314.539h-2.91V293h2.91V314.539z"/>
	<path fill="#FFFFFF" d="M435.809,293h2.82v21.539h-3.27l-10.95-17.398h-0.06v17.398h-2.82V293h3.45l10.77,17.4h0.06V293z"/>
	<path fill="#FFFFFF" d="M453.056,308.27l-2.25,6.27h-3l8.1-21.539h3.3l7.8,21.539h-3.18l-2.13-6.27H453.056z M460.645,305.689
		l-3.18-9.479h-0.06l-3.45,9.479H460.645z"/>
	<path fill="#FFFFFF" d="M476.092,293h9.48c4.02,0,6.089,2.49,6.089,5.43c0,1.41-0.51,3.391-2.88,4.5c1.41,0.57,3.9,1.561,3.9,5.25
		c0,3.45-2.55,6.359-7.319,6.359h-9.27V293z M479.002,302.12h5.25c2.79,0,4.5-0.84,4.5-3.479c0-2.01-1.23-3.15-4.47-3.15h-5.28
		V302.12z M479.002,312.05h6.209c3.03,0,4.56-1.53,4.56-3.931c0-3.029-2.67-3.629-5.04-3.629h-5.729V312.05z"/>
	<path fill="#FFFFFF" d="M519.378,293v13.98c0,4.409-2.76,8.129-8.67,8.129c-5.79,0-8.279-3.72-8.279-7.74V293h2.91v13.561
		c0,4.68,2.85,5.969,5.46,5.969c2.67,0,5.669-1.229,5.669-5.909V293H519.378z"/>
	<path fill="#FFFFFF" d="M548.205,314.539V301.82c0-0.631,0.06-3.36,0.06-5.37h-0.06l-6.06,18.089h-2.88l-6.06-18.059h-0.06
		c0,1.979,0.06,4.709,0.06,5.34v12.719h-2.82V293h4.17l6.149,18.209h0.06l6.12-18.209h4.14v21.539H548.205z"/>
	<path fill="#FFFFFF" d="M565.302,314.539h-2.91V293h2.91V314.539z"/>
	<path fill="#FFFFFF" d="M579.968,314.539h-2.91V293h9.689c3.99,0,6.39,2.58,6.39,6.061c0,3-1.71,6.389-6.39,6.389h-6.78V314.539z
		 M579.968,302.96h5.79c2.61,0,4.38-0.96,4.38-3.87c0-2.729-1.86-3.6-4.26-3.6h-5.91V302.96z"/>
	<path fill="#FFFFFF" d="M620.284,293v13.98c0,4.409-2.76,8.129-8.67,8.129c-5.79,0-8.279-3.72-8.279-7.74V293h2.91v13.561
		c0,4.68,2.85,5.969,5.46,5.969c2.67,0,5.669-1.229,5.669-5.909V293H620.284z"/>
	<path fill="#FFFFFF" d="M629.521,293h17.488v2.58h-7.289v18.959h-2.91V295.58h-7.289V293z"/>
	<path fill="#FFFFFF" d="M672.387,314.539h-15.899V293h15.688v2.58h-12.779v6.6h11.79v2.58h-11.79v7.199h12.99V314.539z"/>
	<path fill="#FFFFFF" d="M685.943,314.539h-2.909V293h9.96c3.539,0,7.079,1.23,7.079,5.79c0,3.181-1.62,4.351-3,5.16
		c1.229,0.51,2.46,1.05,2.58,4.05l0.18,3.899c0.03,1.2,0.181,1.65,1.08,2.16v0.479h-3.569c-0.42-1.319-0.51-4.59-0.51-5.399
		c0-1.771-0.36-3.84-3.84-3.84h-7.051V314.539z M685.943,302.811h6.75c2.13,0,4.38-0.541,4.38-3.721c0-3.33-2.43-3.6-3.87-3.6h-7.26
		V302.811z"/>
	<path fill="#FFFFFF" d="M714.2,308.27l-2.25,6.27h-3l8.1-21.539h3.3l7.8,21.539h-3.18l-2.13-6.27H714.2z M721.789,305.689
		l-3.18-9.479h-0.06l-3.45,9.479H721.789z"/>
	<path fill="#D1D3D4" d="M740.206,314.539h-2.909V293h2.909v10.439L750.646,293h4.021l-8.97,8.7l9.21,12.839h-3.78l-7.529-10.799
		l-3.391,3.24V314.539z"/>
	<path fill="#D1D3D4" d="M779.982,314.539h-15.899V293h15.689v2.58h-12.779v6.6h11.789v2.58h-11.789v7.199h12.989V314.539z"/>
	<path fill="#D1D3D4" d="M793.179,311.959h10.92v2.58H790.27V293h2.909V311.959z"/>
	<path fill="#D1D3D4" d="M816.786,314.539h-2.91V293h2.91V314.539z"/>
	<path fill="#D1D3D4" d="M842.522,293h2.819v21.539h-3.27l-10.949-17.398h-0.061v17.398h-2.819V293h3.449l10.77,17.4h0.061V293z"/>
	<path fill="#D1D3D4" d="M865.77,303.02h9.449v11.52h-1.89l-0.69-2.789c-1.47,2.039-4.17,3.359-7.109,3.359
		c-3.69,0-5.49-1.35-6.6-2.43c-3.3-3.12-3.391-6.81-3.391-9.09c0-5.25,3.181-11.159,10.2-11.159c4.02,0,8.489,2.28,9.119,7.109
		h-2.819c-0.93-3.749-4.08-4.53-6.45-4.53c-3.869,0-7.05,3.09-7.05,8.73c0,4.379,1.44,8.879,7.17,8.879
		c1.08,0,2.82-0.119,4.41-1.379c1.89-1.5,2.37-3.42,2.37-5.73h-6.72V303.02z"/>
	<path fill="#FFFFFF" d="M900.386,293h2.909v21.539h-2.909V304.49h-11.25v10.049h-2.91V293h2.91v8.91h11.25V293z"/>
	<path fill="#FFFFFF" d="M917.723,308.27l-2.25,6.27h-3l8.1-21.539h3.3l7.8,21.539h-3.18l-2.13-6.27H917.723z M925.313,305.689
		l-3.18-9.479h-0.061l-3.45,9.479H925.313z"/>
	<path fill="#FFFFFF" d="M943.729,311.959h10.92v2.58h-13.829V293h2.909V311.959z"/>
	<path fill="#FFFFFF" d="M967.365,308.27l-2.25,6.27h-3l8.1-21.539h3.3l7.8,21.539h-3.18l-2.13-6.27H967.365z M974.955,305.689
		l-3.18-9.479h-0.061l-3.45,9.479H974.955z"/>
	<path fill="#FFFFFF" d="M993.371,311.959h10.92v2.58h-13.829V293h2.909V311.959z"/>
	<path fill="#6D6E71" d="M1008.459,293h17.489v2.58h-7.29v18.959h-2.909V295.58h-7.29V293z"/>
	<path fill="#6D6E71" d="M1043.315,315.109c-8.04,0-10.5-6.689-10.5-11.34c0-4.649,2.46-11.339,10.5-11.339
		c8.039,0,10.499,6.689,10.499,11.339C1053.814,308.42,1051.354,315.109,1043.315,315.109z M1043.315,295.01
		c-4.681,0-7.5,3.69-7.5,8.76c0,5.07,2.819,8.76,7.5,8.76c4.68,0,7.499-3.689,7.499-8.76
		C1050.814,298.7,1047.995,295.01,1043.315,295.01z"/>
	<path fill="#6D6E71" d="M1073.132,315.109c-8.04,0-10.5-6.689-10.5-11.34c0-4.649,2.46-11.339,10.5-11.339
		c8.039,0,10.499,6.689,10.499,11.339C1083.631,308.42,1081.171,315.109,1073.132,315.109z M1073.132,295.01
		c-4.681,0-7.5,3.69-7.5,8.76c0,5.07,2.819,8.76,7.5,8.76c4.68,0,7.499-3.689,7.499-8.76
		C1080.631,298.7,1077.812,295.01,1073.132,295.01z"/>
	<path fill="#FFFFFF" d="M1111.287,314.539V301.82c0-0.631,0.061-3.36,0.061-5.37h-0.061l-6.06,18.089h-2.88l-6.06-18.059h-0.06
		c0,1.979,0.06,4.709,0.06,5.34v12.719h-2.82V293h4.17l6.15,18.209h0.06l6.12-18.209h4.14v21.539H1111.287z"/>
	<path fill="#FFFFFF" d="M1128.416,308.27l-2.25,6.27h-3l8.1-21.539h3.3l7.8,21.539h-3.18l-2.13-6.27H1128.416z M1136.006,305.689
		l-3.18-9.479h-0.061l-3.45,9.479H1136.006z"/>
	<path fill="#FFFFFF" d="M1165.792,293h2.819v21.539h-3.27l-10.949-17.398h-0.061v17.398h-2.819V293h3.449l10.77,17.4h0.061V293z"/>
	<path fill="#FFFFFF" d="M1188.828,314.539h-2.91v-8.669l-8.13-12.87h3.39l6.18,10.35l6.18-10.35h3.42l-8.129,12.87V314.539z"/>
	<path fill="#FFFFFF" d="M1220.414,293h2.819v21.539h-3.27l-10.949-17.398h-0.061v17.398h-2.819V293h3.449l10.77,17.4h0.061V293z"/>
	<path fill="#FFFFFF" d="M1250.47,314.539h-15.899V293h15.689v2.58h-12.779v6.6h11.789v2.58h-11.789v7.199h12.989V314.539z"/>
	<path fill="#FFFFFF" d="M9.149,350.539H6.09L0.48,329h3.15l4.02,17.52h0.06L12.54,329h3.18l4.83,17.52h0.06l4.02-17.52h3.21
		l-5.67,21.539h-3.06l-4.92-17.849h-0.06L9.149,350.539z"/>
	<path fill="#FFFFFF" d="M50.541,335.301c-0.15-3.33-2.91-4.381-5.34-4.381c-1.83,0-4.92,0.51-4.92,3.78
		c0,1.83,1.29,2.43,2.55,2.729l6.15,1.41c2.79,0.66,4.89,2.34,4.89,5.76c0,5.1-4.74,6.51-8.43,6.51c-3.99,0-5.55-1.199-6.51-2.07
		c-1.83-1.649-2.19-3.449-2.19-5.459h2.73c0,3.899,3.18,5.039,5.94,5.039c2.1,0,5.64-0.539,5.64-3.629c0-2.25-1.05-2.971-4.59-3.811
		l-4.41-1.02c-1.41-0.33-4.59-1.32-4.59-5.07c0-3.359,2.19-6.659,7.41-6.659c7.53,0,8.28,4.499,8.4,6.87H50.541z"/>
	<path fill="#FFFFFF" d="M67.722,350.539h-2.91V329h9.689c3.99,0,6.39,2.58,6.39,6.061c0,3-1.71,6.389-6.39,6.389h-6.78V350.539z
		 M67.722,338.96h5.79c2.61,0,4.38-0.96,4.38-3.87c0-2.729-1.86-3.6-4.26-3.6h-5.91V338.96z"/>
	<path fill="#FFFFFF" d="M91.265,344.27l-2.25,6.27h-3l8.1-21.539h3.3l7.8,21.539h-3.18l-2.13-6.27H91.265z M98.854,341.689
		l-3.18-9.479h-0.06l-3.45,9.479H98.854z"/>
	<path fill="#FFFFFF" d="M118.046,350.539h-2.91V329h9.689c3.99,0,6.39,2.58,6.39,6.061c0,3-1.71,6.389-6.39,6.389h-6.78V350.539z
		 M118.046,338.96h5.79c2.61,0,4.379-0.96,4.379-3.87c0-2.729-1.86-3.6-4.26-3.6h-5.91V338.96z"/>
	<path fill="#FFFFFF" d="M157.997,350.539h-15.899V329h15.689v2.58h-12.779v6.6h11.79v2.58h-11.79v7.199h12.99V350.539z"/>
	<path fill="#FFFFFF" d="M172.029,350.539h-2.91V329h9.959c3.54,0,7.08,1.23,7.08,5.79c0,3.181-1.62,4.351-3,5.16
		c1.23,0.51,2.46,1.05,2.58,4.05l0.18,3.899c0.03,1.2,0.18,1.65,1.08,2.16v0.479h-3.57c-0.42-1.319-0.51-4.59-0.51-5.399
		c0-1.771-0.36-3.84-3.84-3.84h-7.05V350.539z M172.029,338.811h6.75c2.13,0,4.38-0.541,4.38-3.721c0-3.33-2.43-3.6-3.87-3.6h-7.26
		V338.811z"/>
	<path fill="#FFFFFF" d="M210.359,335.301c-0.15-3.33-2.91-4.381-5.34-4.381c-1.83,0-4.92,0.51-4.92,3.78
		c0,1.83,1.29,2.43,2.55,2.729l6.15,1.41c2.79,0.66,4.89,2.34,4.89,5.76c0,5.1-4.74,6.51-8.43,6.51c-3.99,0-5.55-1.199-6.51-2.07
		c-1.83-1.649-2.19-3.449-2.19-5.459h2.73c0,3.899,3.18,5.039,5.94,5.039c2.1,0,5.64-0.539,5.64-3.629c0-2.25-1.05-2.971-4.59-3.811
		l-4.41-1.02c-1.41-0.33-4.59-1.32-4.59-5.07c0-3.359,2.19-6.659,7.41-6.659c7.53,0,8.28,4.499,8.399,6.87H210.359z"/>
	<path fill="#FFFFFF" d="M231.201,350.539h-3.06L222.531,329h3.15l4.02,17.52h0.06l4.83-17.52h3.18l4.83,17.52h0.06l4.02-17.52h3.21
		l-5.67,21.539h-3.06l-4.92-17.849h-0.06L231.201,350.539z"/>
	<path fill="#FFFFFF" d="M262.962,350.539h-2.91V329h2.91V350.539z"/>
	<path fill="#FFFFFF" d="M277.804,347.959h10.919v2.58h-13.83V329h2.91V347.959z"/>
	<path fill="#FFFFFF" d="M301.437,347.959h10.919v2.58h-13.83V329h2.91V347.959z"/>
	<path fill="#939598" d="M337.277,335.48c-0.81-3.78-3.96-4.471-6.03-4.471c-3.9,0-7.05,2.881-7.05,8.551
		c0,5.069,1.8,8.969,7.14,8.969c1.89,0,5.16-0.899,6.15-5.909h2.82c-1.2,8.13-7.8,8.489-9.419,8.489c-4.89,0-9.69-3.18-9.69-11.459
		c0-6.63,3.78-11.22,10.05-11.22c5.55,0,8.43,3.45,8.85,7.05H337.277z"/>
	<path fill="#939598" d="M360.159,351.109c-8.04,0-10.5-6.689-10.5-11.34c0-4.649,2.46-11.339,10.5-11.339s10.5,6.689,10.5,11.339
		C370.659,344.42,368.199,351.109,360.159,351.109z M360.159,331.01c-4.68,0-7.5,3.69-7.5,8.76c0,5.07,2.82,8.76,7.5,8.76
		s7.5-3.689,7.5-8.76C367.659,334.7,364.839,331.01,360.159,331.01z"/>
	<path fill="#939598" d="M395.341,329h2.82v21.539h-3.27l-10.95-17.398h-0.06v17.398h-2.82V329h3.45l10.77,17.4h0.06V329z"/>
	<path fill="#939598" d="M412.882,350.539h-2.91V329h14.909v2.58h-12v6.6h10.56v2.58h-10.56V350.539z"/>
	<path fill="#939598" d="M451.994,329v13.98c0,4.409-2.76,8.129-8.67,8.129c-5.79,0-8.279-3.72-8.279-7.74V329h2.91v13.561
		c0,4.68,2.85,5.969,5.46,5.969c2.67,0,5.669-1.229,5.669-5.909V329H451.994z"/>
	<path fill="#939598" d="M476.555,335.301c-0.15-3.33-2.91-4.381-5.34-4.381c-1.83,0-4.92,0.51-4.92,3.78
		c0,1.83,1.29,2.43,2.55,2.729l6.15,1.41c2.79,0.66,4.89,2.34,4.89,5.76c0,5.1-4.74,6.51-8.43,6.51c-3.99,0-5.55-1.199-6.51-2.07
		c-1.83-1.649-2.19-3.449-2.19-5.459h2.73c0,3.899,3.18,5.039,5.94,5.039c2.1,0,5.64-0.539,5.64-3.629c0-2.25-1.05-2.971-4.59-3.811
		l-4.41-1.02c-1.41-0.33-4.59-1.32-4.59-5.07c0-3.359,2.19-6.659,7.41-6.659c7.53,0,8.28,4.499,8.399,6.87H476.555z"/>
	<path fill="#939598" d="M506.726,350.539h-15.899V329h15.689v2.58h-12.779v6.6h11.79v2.58h-11.79v7.199h12.989V350.539z"/>
	<path fill="#FFFFFF" d="M535.217,350.539V337.82c0-0.631,0.06-3.36,0.06-5.37h-0.06l-6.06,18.089h-2.88l-6.06-18.059h-0.06
		c0,1.979,0.06,4.709,0.06,5.34v12.719h-2.82V329h4.17l6.149,18.209h0.06l6.12-18.209h4.14v21.539H535.217z"/>
	<path fill="#FFFFFF" d="M552.82,344.27l-2.25,6.27h-3l8.1-21.539h3.3l7.8,21.539h-3.18l-2.13-6.27H552.82z M560.409,341.689
		l-3.18-9.479h-0.06l-3.45,9.479H560.409z"/>
	<path fill="#FFFFFF" d="M579.302,347.959h10.919v2.58h-13.83V329h2.91V347.959z"/>
	<path fill="#FFFFFF" d="M603.413,344.27l-2.25,6.27h-3l8.1-21.539h3.3l7.8,21.539h-3.18l-2.13-6.27H603.413z M611.002,341.689
		l-3.18-9.479h-0.06l-3.45,9.479H611.002z"/>
	<path fill="#FFFFFF" d="M633.164,350.539h-2.909v-8.669l-8.13-12.87h3.39l6.18,10.35l6.18-10.35h3.42l-8.131,12.87V350.539z"/>
	<path fill="#FFFFFF" d="M663.936,335.301c-0.149-3.33-2.91-4.381-5.34-4.381c-1.83,0-4.92,0.51-4.92,3.78
		c0,1.83,1.291,2.43,2.551,2.729l6.149,1.41c2.79,0.66,4.89,2.34,4.89,5.76c0,5.1-4.74,6.51-8.43,6.51c-3.99,0-5.55-1.199-6.51-2.07
		c-1.83-1.649-2.189-3.449-2.189-5.459h2.729c0,3.899,3.181,5.039,5.94,5.039c2.1,0,5.639-0.539,5.639-3.629
		c0-2.25-1.049-2.971-4.59-3.811l-4.409-1.02c-1.41-0.33-4.59-1.32-4.59-5.07c0-3.359,2.19-6.659,7.409-6.659
		c7.53,0,8.28,4.499,8.4,6.87H663.936z"/>
	<path fill="#FFFFFF" d="M681.268,350.539h-2.91V329h2.91V350.539z"/>
	<path fill="#FFFFFF" d="M696.59,344.27l-2.25,6.27h-3l8.1-21.539h3.299l7.801,21.539h-3.18l-2.131-6.27H696.59z M704.179,341.689
		l-3.18-9.479h-0.06l-3.45,9.479H704.179z"/>
	<path fill="#FFFFFF" d="M734.44,329h2.819v21.539h-3.27l-10.949-17.398h-0.061v17.398h-2.82V329h3.45l10.77,17.4h0.061V329z"/>
	<path fill="#FFFFFF" d="M761.762,335.301c-0.15-3.33-2.91-4.381-5.34-4.381c-1.83,0-4.92,0.51-4.92,3.78
		c0,1.83,1.29,2.43,2.55,2.729l6.149,1.41c2.79,0.66,4.891,2.34,4.891,5.76c0,5.1-4.74,6.51-8.43,6.51c-3.99,0-5.55-1.199-6.51-2.07
		c-1.83-1.649-2.19-3.449-2.19-5.459h2.73c0,3.899,3.18,5.039,5.939,5.039c2.1,0,5.64-0.539,5.64-3.629
		c0-2.25-1.05-2.971-4.59-3.811l-4.41-1.02c-1.409-0.33-4.59-1.32-4.59-5.07c0-3.359,2.19-6.659,7.41-6.659
		c7.529,0,8.279,4.499,8.399,6.87H761.762z"/>
	<path fill="#58595B" d="M773.874,329h17.489v2.58h-7.29v18.959h-2.909V331.58h-7.29V329z"/>
	<path fill="#58595B" d="M800.806,344.27l-2.25,6.27h-3l8.1-21.539h3.3l7.8,21.539h-3.18l-2.13-6.27H800.806z M808.396,341.689
		l-3.181-9.479h-0.06l-3.45,9.479H808.396z"/>
	<path fill="#58595B" d="M841.537,350.539h-3.6l-5.79-8.85l-5.97,8.85h-3.51l7.709-11.039l-7.229-10.5h3.66l5.46,8.25l5.459-8.25
		h3.48l-7.229,10.5L841.537,350.539z"/>
	<path fill="#58595B" d="M854.698,350.539h-2.91V329h2.91V350.539z"/>
	<path fill="#58595B" d="M866.78,329h8.729c5.61,0,9.06,4.26,9.06,10.471c0,4.829-2.1,11.068-9.179,11.068h-8.61V329z
		 M869.69,348.05h5.64c3.78,0,6.24-2.97,6.24-8.399s-2.49-8.16-6.45-8.16h-5.43V348.05z"/>
	<path fill="#58595B" d="M898.512,350.539h-2.91V329h9.96c3.54,0,7.079,1.23,7.079,5.79c0,3.181-1.619,4.351-2.999,5.16
		c1.229,0.51,2.46,1.05,2.579,4.05l0.181,3.899c0.029,1.2,0.18,1.65,1.08,2.16v0.479h-3.57c-0.42-1.319-0.51-4.59-0.51-5.399
		c0-1.771-0.36-3.84-3.84-3.84h-7.05V350.539z M898.512,338.811h6.75c2.13,0,4.38-0.541,4.38-3.721c0-3.33-2.431-3.6-3.87-3.6h-7.26
		V338.811z"/>
	<path fill="#58595B" d="M927.213,350.539h-2.91V329h2.91V350.539z"/>
	<path fill="#58595B" d="M953.004,329h3.27l-7.859,21.539h-3.09L937.464,329h3.24l6.149,18.359h0.061L953.004,329z"/>
	<path fill="#58595B" d="M982.306,350.539h-15.899V329h15.689v2.58h-12.779v6.6h11.789v2.58h-11.789v7.199h12.989V350.539z"/>
	<path fill="#58595B" d="M996.337,350.539h-2.91V329h9.96c3.54,0,7.08,1.23,7.08,5.79c0,3.181-1.62,4.351-3,5.16
		c1.229,0.51,2.46,1.05,2.579,4.05l0.181,3.899c0.029,1.2,0.18,1.65,1.08,2.16v0.479h-3.57c-0.42-1.319-0.51-4.59-0.51-5.399
		c0-1.771-0.36-3.84-3.84-3.84h-7.05V350.539z M996.337,338.811h6.75c2.13,0,4.38-0.541,4.38-3.721c0-3.33-2.431-3.6-3.87-3.6h-7.26
		V338.811z"/>
	<path fill="#FFFFFF" d="M1025.038,350.539h-2.91V329h2.91V350.539z"/>
	<path fill="#FFFFFF" d="M1036.909,329h9.479c4.021,0,6.09,2.49,6.09,5.43c0,1.41-0.51,3.391-2.88,4.5c1.41,0.57,3.9,1.561,3.9,5.25
		c0,3.45-2.55,6.359-7.32,6.359h-9.27V329z M1039.819,338.12h5.25c2.79,0,4.499-0.84,4.499-3.479c0-2.01-1.229-3.15-4.47-3.15
		h-5.279V338.12z M1039.819,348.05h6.21c3.029,0,4.56-1.53,4.56-3.931c0-3.029-2.67-3.629-5.04-3.629h-5.729V348.05z"/>
	<path fill="#FFFFFF" d="M1067.201,350.539h-2.91V329h9.96c3.54,0,7.079,1.23,7.079,5.79c0,3.181-1.619,4.351-2.999,5.16
		c1.229,0.51,2.46,1.05,2.579,4.05l0.181,3.899c0.029,1.2,0.18,1.65,1.08,2.16v0.479h-3.57c-0.42-1.319-0.51-4.59-0.51-5.399
		c0-1.771-0.36-3.84-3.84-3.84h-7.05V350.539z M1067.201,338.811h6.75c2.13,0,4.38-0.541,4.38-3.721c0-3.33-2.431-3.6-3.87-3.6
		h-7.26V338.811z"/>
	<path fill="#FFFFFF" d="M1095.932,344.27l-2.25,6.27h-3l8.1-21.539h3.3l7.8,21.539h-3.18l-2.13-6.27H1095.932z M1103.521,341.689
		l-3.18-9.479h-0.061l-3.45,9.479H1103.521z"/>
	<path fill="#FFFFFF" d="M1133.693,329h2.909v21.539h-2.909V340.49h-11.25v10.049h-2.91V329h2.91v8.91h11.25V329z"/>
	<path fill="#FFFFFF" d="M1151.475,350.539h-2.91V329h2.91V350.539z"/>
	<path fill="#FFFFFF" d="M1181.135,350.539V337.82c0-0.631,0.061-3.36,0.061-5.37h-0.061l-6.06,18.089h-2.88l-6.06-18.059h-0.06
		c0,1.979,0.06,4.709,0.06,5.34v12.719h-2.82V329h4.17l6.15,18.209h0.06l6.12-18.209h4.14v21.539H1181.135z"/>
	<path fill="#FFFFFF" d="M1198.738,344.27l-2.25,6.27h-3l8.1-21.539h3.3l7.8,21.539h-3.18l-2.13-6.27H1198.738z M1206.328,341.689
		l-3.18-9.479h-0.061l-3.45,9.479H1206.328z"/>
	<path fill="#FFFFFF" d="M1225.219,347.959h10.92v2.58h-13.829V329h2.909V347.959z"/>
	<path fill="#FFFFFF" d="M1249.301,350.539h-2.91V329h2.91V350.539z"/>
</g>
</svg>
